<?xml version="1.0" encoding="UTF-8"?>
<svg width="438px" height="268px" viewBox="0 0 438 268" version="1.1" xmlns="http://www.w3.org/2000/svg" xmlns:xlink="http://www.w3.org/1999/xlink">
    <!-- Generator: Sketch 64 (93537) - https://sketch.com -->
    <title>插图</title>
    <desc>Created with Sketch.</desc>
    <defs>
        <polygon id="path-1" points="0 0.111000409 38.6497108 0.111000409 38.6497108 9.22289531 0 9.22289531"></polygon>
        <polygon id="path-3" points="0.0207055058 0.0238829098 38.7089406 0.0238829098 38.7089406 9.0984335 0.0207055058 9.0984335"></polygon>
        <polygon id="path-5" points="0 0.362423427 13.1594036 0.362423427 13.1594036 28.2984001 0 28.2984001"></polygon>
        <polygon id="path-7" points="0.0285773917 0.362423427 13.1876575 0.362423427 13.1876575 28.2984001 0.0285773917 28.2984001"></polygon>
        <polygon id="path-9" points="0.0417462893 0.0552112074 9.98076306 0.0552112074 9.98076306 9.9937405 0.0417462893 9.9937405"></polygon>
        <polygon id="path-11" points="0.0245901758 0.0848398765 10.8699265 0.0848398765 10.8699265 10.8081464 0.0245901758 10.8081464"></polygon>
        <polygon id="path-13" points="6.63748869e-06 0 59.4718987 0 59.4718987 59.3414214 6.63748869e-06 59.3414214"></polygon>
        <polygon id="path-15" points="2.47111246e-05 4.92451434e-06 29.6533495 4.92451434e-06 29.6533495 19.6980574 2.47111246e-05 19.6980574"></polygon>
    </defs>
    <g id="异常错误" stroke="none" stroke-width="1" fill="none" fill-rule="evenodd">
        <g id="403" transform="translate(-331.000000, -378.000000)">
            <g transform="translate(24.000000, 72.000000)" id="403提醒">
                <g transform="translate(307.000000, 306.000000)">
                    <g id="插图">
                        <g id="男_摊手" transform="translate(12.000000, 35.000000)">
                            <g transform="translate(26.000000, 24.000000)">
                                <path d="M169.55278,58.8884545 L168.889103,39.3839708 L141.141505,39.3839708 L140.482615,58.7401436 C140.452302,59.6523356 139.810163,60.4361509 138.923931,60.65782 C134.736864,61.7007808 132.516099,62.0651792 132.516099,62.0651792 C132.516099,62.0651792 134.385083,76.8261048 155.981704,76.8261048 C177.579123,76.8261048 178.62569,63.1870797 178.62569,63.1870797 C178.62569,63.1870797 174.697074,61.8387259 171.031695,60.7822098 C170.178966,60.5366197 169.582295,59.7743333 169.55278,58.8884545" id="Fill-1" fill="#FFB69C"></path>
                                <path d="M138.712464,40.4683152 C135.426784,41.8995955 132.652424,37.3657459 131.714342,35.4281352 C130.03441,31.9627623 131.316295,27.9854775 133.001013,27.1434541 C134.542946,26.373194 136.1463,27.3683126 136.1463,27.3683126 C136.1463,27.3683126 138.880776,29.9414277 139.516534,35.3842798 C139.896234,38.6407416 138.712464,40.4683152 138.712464,40.4683152" id="Fill-17" fill="#FFB594"></path>
                                <path d="M171.317985,40.4683152 C174.603665,41.8995955 177.378026,37.3657459 178.316107,35.4281352 C179.995242,31.9627623 178.714154,27.9854775 177.028638,27.1434541 C175.487504,26.373194 173.88415,27.3683126 173.88415,27.3683126 C173.88415,27.3683126 171.149673,29.9414277 170.513915,35.3842798 C170.134215,38.6407416 171.317985,40.4683152 171.317985,40.4683152" id="Fill-19" fill="#FFB594"></path>
                                <path d="M154.2713,5.11202303 C140.275056,5.11202303 133.130159,16.091817 135.580659,30.2961779 C136.784371,37.2771581 136.738902,37.1392129 138.328696,44.0882982 C139.050604,47.2474808 145.85409,57.5160201 155.345787,57.5160201 C164.220072,57.5160201 170.656622,47.4994499 171.377732,44.268504 C172.897329,37.4597559 172.981884,37.305066 173.902417,30.2961779 C175.781771,16.0049036 169.208817,5.11202303 155.212573,5.11202303 L154.2713,5.11202303 Z" id="Fill-21" fill="#FFC6A0"></path>
                                <path d="M155.31356,57.9521021 C150.477174,57.9521021 146.566905,55.3494843 144.138741,53.1654861 C143.971226,53.0155804 143.958463,52.7580297 144.108428,52.5905818 C144.259989,52.423134 144.517643,52.4095787 144.68436,52.5602817 C147.006431,54.6477981 150.735625,57.1371893 155.31356,57.1371893 C159.807738,57.1371893 163.445995,54.4739713 165.707443,52.2397387 C165.86698,52.081062 166.126229,52.0826567 166.284171,52.2429282 C166.442114,52.4031997 166.440518,52.6607504 166.280981,52.8194272 C163.91025,55.1605075 160.083738,57.9521021 155.31356,57.9521021" id="Fill-23" fill="#DB836E"></path>
                                <path d="M155.179548,5.43926395 L154.238276,5.43926395 C154.073154,5.43926395 153.939143,5.30530568 153.939143,5.14024995 C153.939143,4.97519423 154.073154,4.84123596 154.238276,4.84123596 L155.179548,4.84123596 C155.34467,4.84123596 155.478682,4.97519423 155.478682,5.14024995 C155.478682,5.30530568 155.34467,5.43926395 155.179548,5.43926395" id="Fill-25" fill="#EA967D"></path>
                                <path d="M148.051802,33.5633245 C147.751871,33.5633245 147.507778,33.3201264 147.507778,33.020315 C147.507778,32.0283859 146.937431,31.1911468 146.261789,31.1911468 C145.586146,31.1911468 145.015001,32.0283859 145.015001,33.020315 C145.015001,33.3201264 144.771706,33.5633245 144.471776,33.5633245 C144.171845,33.5633245 143.927752,33.3201264 143.927752,33.020315 C143.927752,31.4120184 144.975117,30.1043305 146.261789,30.1043305 C147.54846,30.1043305 148.595826,31.4120184 148.595826,33.020315 C148.595826,33.3201264 148.351733,33.5633245 148.051802,33.5633245" id="Fill-27" fill="#5C2552"></path>
                                <path d="M164.732348,33.5633245 C164.432417,33.5633245 164.188324,33.3201264 164.188324,33.020315 C164.188324,32.0283859 163.617977,31.1911468 162.942335,31.1911468 C162.266693,31.1911468 161.695548,32.0283859 161.695548,33.020315 C161.695548,33.3201264 161.452253,33.5633245 161.152322,33.5633245 C160.852391,33.5633245 160.608298,33.3201264 160.608298,33.020315 C160.608298,31.4120184 161.655663,30.1043305 162.942335,30.1043305 C164.229007,30.1043305 165.276372,31.4120184 165.276372,33.020315 C165.276372,33.3201264 165.032279,33.5633245 164.732348,33.5633245" id="Fill-29" fill="#5C2552"></path>
                                <path d="M156.927603,40.2110037 L153.725681,40.2110037 C153.500733,40.2110037 153.31886,40.0284058 153.31886,39.8035472 C153.31886,39.5786887 153.500733,39.3960908 153.725681,39.3960908 L156.509614,39.3960908 L156.267117,30.1298464 C156.264724,30.0517041 156.284666,29.9751565 156.325348,29.9089747 L158.151258,26.8773715 C158.26772,26.6844078 158.518194,26.6230103 158.710437,26.738629 C158.903478,26.8542477 158.965698,27.1046221 158.849235,27.2975858 L157.084748,30.2271256 L157.335222,39.7931814 C157.338413,39.9032186 157.296135,40.0092689 157.219557,40.0874112 C157.142979,40.1663509 157.037684,40.2110037 156.927603,40.2110037" id="Fill-31" fill="#DB836E"></path>
                                <path d="M156.746129,49.8571155 L153.495548,49.8571155 C153.2706,49.8571155 153.087929,49.6745176 153.087929,49.4496591 C153.087929,49.2248005 153.2706,49.0422027 153.495548,49.0422027 L156.746129,49.0422027 C156.971077,49.0422027 157.153748,49.2248005 157.153748,49.4496591 C157.153748,49.6745176 156.971077,49.8571155 156.746129,49.8571155" id="Fill-33" fill="#DB836E"></path>
                                <path d="M160.480588,43.7615357 L149.721364,43.775091 C149.721364,43.775091 151.119712,46.7875574 155.033173,46.7875574 C158.945835,46.7875574 160.480588,43.7615357 160.480588,43.7615357" id="Fill-35" fill="#F7F7F7"></path>
                                <path d="M150.449494,44.1814311 C151.048558,44.9971413 152.445311,46.3805794 155.033013,46.3805794 C157.618322,46.3805794 159.081283,44.9947492 159.723422,44.1702679 L150.449494,44.1814311 Z M155.033013,47.1954922 C150.90657,47.1954922 149.412499,44.0793677 149.351077,43.9462068 C149.292846,43.8202222 149.303216,43.673506 149.377401,43.5562925 C149.452384,43.439079 149.581609,43.3673157 149.720407,43.3673157 L160.479631,43.3537604 L160.480428,43.3537604 C160.622417,43.3537604 160.753238,43.4271185 160.828221,43.5483188 C160.902406,43.6687218 160.90799,43.8194248 160.844175,43.9454094 C160.776371,44.0785703 159.149086,47.1954922 155.033013,47.1954922 L155.033013,47.1954922 Z" id="Fill-37" fill="#DB836E"></path>
                                <path d="M139.291985,15.5218565 C138.342735,19.4393385 138.505464,23.381539 138.224677,24.392605 C138.148897,24.6629137 137.045693,26.4131423 137.045693,26.4131423 L136.117982,33.1509244 C136.117982,33.1509244 133.598881,24.2618363 132.938395,9.88843275 C132.860221,8.20598066 133.859725,6.65349999 135.430374,6.04510618 C136.718641,5.54674952 138.51025,4.80439743 140.855454,3.72954178 C149.485647,-0.226214056 156.356937,0.00263132318 156.356937,0.00263132318 C174.194052,0.21632666 177.194956,12.5851403 175.026041,25.5774978 C174.568965,28.3140739 174.258664,30.1217132 173.566271,33.1509244 L172.260454,26.4131423 L170.470441,24.4412447 C170.470441,24.4412447 170.29495,20.2375065 169.410313,15.5393986 L139.291985,15.5218565 Z" id="Fill-39" fill="#5C2552"></path>
                                <path d="M140.860879,28.0489482 C140.635133,28.0489482 140.423745,27.9070162 140.346369,27.6813603 C140.249051,27.3974964 140.40141,27.0881166 140.685387,26.9916347 L142.412383,26.4023778 C142.474603,26.3800514 142.541608,26.3696856 142.609412,26.3736724 C144.462443,26.4470305 149.564459,26.4709517 150.927709,25.7046785 C151.190148,25.5563675 151.521189,25.6504573 151.667964,25.9111975 C151.814738,26.172735 151.722207,26.5044412 151.460565,26.6511574 C149.652205,27.667805 143.74213,27.5019519 142.668441,27.4628808 L141.03637,28.0194455 C140.978139,28.0393798 140.91911,28.0489482 140.860879,28.0489482" id="Fill-41" fill="#5C2552"></path>
                                <path d="M168.46218,28.0489482 C168.403949,28.0489482 168.34492,28.0393798 168.286689,28.0194455 L166.651427,27.461286 C165.848953,27.4804229 160.724601,27.5721205 158.455975,26.9246556 C158.168009,26.8425264 158.000494,26.5411203 158.082656,26.2532695 C158.165616,25.9654187 158.467142,25.7979708 158.755108,25.8801 C161.005387,26.5227808 166.662595,26.3752672 166.720029,26.3728751 C166.784641,26.3744698 166.850052,26.3816462 166.910676,26.4023778 L168.637672,26.9916347 C168.921649,27.0881166 169.074008,27.3974964 168.97669,27.6813603 C168.899314,27.9070162 168.687926,28.0489482 168.46218,28.0489482" id="Fill-43" fill="#5C2552"></path>
                                <path d="M114.891648,66.7683106 C114.891648,66.7683106 127.056399,84.5002393 112.828027,112.944045 C105.486101,126.494562 89.8825145,149.250724 82.152912,148.616017 C75.256894,148.050681 74.0771126,126.734571 77.6340061,117.435634 C81.1908995,108.136698 96.4490871,85.2800678 96.4490871,85.2800678 C96.4490871,85.2800678 105.040991,68.9562957 114.891648,66.7683106" id="Fill-45" fill="#FFB594"></path>
                                <path d="M89.0142305,130.89868 C89.0142305,130.89868 87.7514894,122.660246 74.9438012,115.484708 C56.4812986,105.142013 38.6633283,88.5168345 38.6633283,88.5168345 C38.6633283,88.5168345 31.2679573,80.0822477 26.237733,80.8006786 C21.2059133,81.5191096 15.8996887,80.3557458 12.3053039,78.9188839 C8.71171674,77.4820219 10.140377,83.7174605 21.4364453,85.4110758 C14.5651557,88.1404755 6.09290507,88.1404755 1.95050817,85.8815245 C-2.34025882,83.542039 0.514668685,94.6589807 9.85879295,97.1730904 C19.2013218,99.6879974 30.7797719,99.727866 30.7797719,99.727866 C30.7797719,99.727866 64.6352715,148.510206 79.2226029,148.923244 C93.810732,149.336282 89.0142305,130.89868 89.0142305,130.89868" id="Fill-47" fill="#FFC6A0"></path>
                                <path d="M14.1460501,94.8322493 C10.3929252,94.8322493 6.33747639,93.5062219 4.02497714,91.5590428 C3.62693053,91.3094658 2.91858305,91.0080597 2.68884873,91.1499916 C2.61306832,91.1970365 2.58514922,91.357308 2.61227063,91.5885455 C2.63061747,91.7456275 2.51814337,91.8883569 2.36099872,91.9066964 C2.19667487,91.9282254 2.06106781,91.8126066 2.04192328,91.6555246 C1.98528739,91.1747101 2.10015455,90.8406118 2.38413169,90.6627982 C3.00313804,90.2720865 4.14223736,90.9562306 4.3639948,91.0973652 C7.85627549,94.0340813 15.3641206,95.5116091 19.4977429,92.9767678 C23.8595042,90.3015892 27.3422126,90.2912234 29.4983649,90.752901 C31.8507486,91.2568393 33.150981,92.3938899 33.2060215,92.4425295 C33.3240794,92.5477824 33.3352471,92.7287855 33.2299522,92.8467964 C33.1246573,92.9656046 32.9443797,92.9767678 32.8239287,92.8715149 C32.6229112,92.6937012 27.7889182,88.5665107 19.7984715,93.4663534 C18.2469672,94.4176166 16.2431734,94.8322493 14.1460501,94.8322493" id="Fill-49" fill="#EA967D"></path>
                                <path d="M11.5589864,90.0996153 C9.0143598,90.0996153 5.73027583,89.6132192 2.55786827,87.7282349 C2.12711642,87.3925419 1.3517631,86.9611643 0.966479508,87.1373833 C0.718398354,87.2514073 0.650594823,87.6492952 0.637831805,87.9642566 C0.631450296,88.122136 0.499033989,88.248918 0.339496268,88.2393495 C0.179958548,88.2321732 0.0571145038,88.0982149 0.0642937012,87.9403355 C0.0922128022,87.2498125 0.31556561,86.8040823 0.727172928,86.6151055 C1.55597138,86.2371518 2.74931353,87.1509386 2.88252753,87.2561915 C9.16352757,90.9838993 15.91995,89.0151912 15.9885512,88.9944595 C16.137719,88.9474147 16.2996498,89.0343281 16.3459157,89.1866259 C16.3921817,89.3381263 16.3052336,89.4983978 16.1536728,89.5438479 C16.1177768,89.5550111 14.2511855,90.0996153 11.5589864,90.0996153" id="Fill-51" fill="#EA967D"></path>
                                <path d="M12.6582013,92.4870227 C9.85193283,92.4870227 6.10518947,91.893779 2.72219212,89.4067799 C2.52276997,89.279998 2.00746313,89.039192 1.76576349,89.1691634 C1.6110119,89.2536847 1.57910435,89.5263855 1.57910435,89.7400808 C1.57910435,89.8987576 1.45067649,90.0271343 1.29193646,90.0271343 C1.13319643,90.0271343 1.00476856,89.8987576 1.00476856,89.7400808 C1.00476856,89.2018556 1.16909241,88.8406467 1.49135861,88.6652252 C2.09441119,88.3367085 2.95272412,88.8725416 3.04764907,88.9339391 C9.27839473,93.5124414 16.7662976,91.4608067 16.839685,91.4400751 C16.9952342,91.3962197 17.1515812,91.4855252 17.1946564,91.637823 C17.2377316,91.7901208 17.1499858,91.9487976 16.9968296,91.9918556 C16.9601359,92.0030188 15.1932557,92.4870227 12.6582013,92.4870227" id="Fill-53" fill="#EA967D"></path>
                                <path d="M192.748847,66.7683106 C192.748847,66.7683106 180.584096,84.5002393 194.812467,112.944045 C202.154393,126.494562 217.75798,149.250724 225.487582,148.616017 C232.3836,148.050681 233.563382,126.734571 230.006488,117.435634 C226.449595,108.136698 211.191407,85.2800678 211.191407,85.2800678 C211.191407,85.2800678 202.599503,68.9562957 192.748847,66.7683106" id="Fill-55" fill="#FFB594"></path>
                                <path d="M218.626184,130.89868 C218.626184,130.89868 219.888925,122.660246 232.696613,115.484708 C251.159116,105.142013 268.977086,88.5168345 268.977086,88.5168345 C268.977086,88.5168345 276.372457,80.0822477 281.402682,80.8006786 C286.434501,81.5191096 291.740726,80.3557458 295.335111,78.9188839 C298.928698,77.4820219 297.500038,83.7174605 286.203969,85.4110758 C293.076057,88.1404755 301.54751,88.1404755 305.689906,85.8815245 C309.980673,83.542039 307.125746,94.6589807 297.782419,97.1730904 C288.439093,99.6879974 276.860643,99.727866 276.860643,99.727866 C276.860643,99.727866 243.005143,148.510206 228.417812,148.923244 C213.829683,149.336282 218.626184,130.89868 218.626184,130.89868" id="Fill-57" fill="#FFC6A0"></path>
                                <path d="M293.501384,94.8332062 C291.401868,94.8332062 289.396479,94.4193708 287.841784,93.4657155 C279.833788,88.5539122 274.864985,92.827819 274.816326,92.8716744 C274.698268,92.9769273 274.5148,92.9657641 274.410303,92.8477532 C274.305806,92.728945 274.316176,92.5479419 274.435031,92.4418916 C274.486083,92.3948467 279.773163,87.843455 288.142512,92.9769273 C292.274539,95.5117686 299.78398,94.0334434 303.24515,91.119851 C303.49722,90.95639 304.636319,90.2738407 305.256123,90.6629576 C305.540101,90.8407713 305.654968,91.1748696 305.598332,91.6548867 C305.580783,91.8127661 305.450759,91.9275875 305.280054,91.9068559 C305.122112,91.8885163 305.009638,91.745787 305.027984,91.5879076 C305.055106,91.3574675 305.027187,91.197196 304.951406,91.1493537 C304.724065,91.0066244 304.012527,91.3096252 303.584966,91.5815286 C301.294004,93.5127604 297.248925,94.8332062 293.501384,94.8332062" id="Fill-59" fill="#EA967D"></path>
                                <path d="M296.06356,90.096665 C293.379338,90.096665 291.523116,89.5552503 291.48722,89.5440871 C291.334862,89.498637 291.248712,89.3383655 291.29418,89.1868651 C291.340446,89.0353646 291.500781,88.9476539 291.652342,88.9946987 C291.720943,89.014633 298.485343,90.9793543 304.789476,87.2349017 C304.890782,87.1503804 306.084922,86.2349989 306.91372,86.6153447 C307.32453,86.8035242 307.547883,87.2492544 307.5766,87.9397774 C307.582981,88.0984541 307.460137,88.2324124 307.301397,88.2387914 C307.153825,88.2483598 307.010241,88.1223752 307.003061,87.9636985 C306.989501,87.6495344 306.921697,87.2508491 306.674414,87.1376225 C306.285939,86.9606062 305.512979,87.3927811 305.114932,87.7069451 C301.917797,89.6070794 298.616163,90.096665 296.06356,90.096665" id="Fill-61" fill="#EA967D"></path>
                                <path d="M294.989313,92.4880593 C292.451068,92.4880593 290.681794,92.0024606 290.644303,91.9920948 C290.491147,91.9490368 290.403401,91.79036 290.446476,91.6380622 C290.488754,91.4857644 290.645101,91.3956615 290.801448,91.4395169 C290.875633,91.4610459 298.369917,93.507099 304.578327,88.9437468 C304.687611,88.8719834 305.541935,88.3361503 306.148976,88.664667 C306.47204,88.8408859 306.636364,89.2020948 306.636364,89.7395227 C306.636364,89.8981994 306.507138,90.0273735 306.348398,90.0273735 C306.189658,90.0273735 306.06123,89.8981994 306.06123,89.7395227 C306.06123,89.5258273 306.029323,89.2531266 305.874571,89.1694026 C305.63686,89.0402286 305.109588,89.284224 304.904582,89.4165876 C301.531955,91.8956129 297.79239,92.4880593 294.989313,92.4880593" id="Fill-63" fill="#EA967D"></path>
                                <path d="M195.658336,217.732424 L211.333715,426.778293 C200.761948,434.820573 185.84916,429.233397 185.84916,429.233397 L161.071356,232.109815 C160.800142,229.949738 158.96147,228.328683 156.78378,228.328683 C154.601304,228.328683 152.761834,229.954522 152.494608,232.119383 L128.203395,428.854646 C114.302076,433.137324 102.779464,427.345223 102.779464,427.345223 L116.621754,216.551518 C114.827753,210.658949 117.827062,207.679972 117.827062,207.679972 L121.323331,175.910333 L191.242332,175.708598 L195.001041,209.525088 C195.001041,209.525088 196.750372,213.392336 195.658336,217.732424" id="Fill-79" fill="#6297CC"></path>
                                <path d="M108.645666,120.188876 C108.645666,120.188876 109.368372,119.073354 110.482743,117.283257 C110.941414,116.545689 112.054987,116.230728 112.623739,115.294614 C113.242745,114.276372 114.236665,112.493451 114.926666,111.31733 C117.535108,106.87438 120.212151,102.927395 121.813112,98.9277842 C126.190029,87.9878588 129.320957,66.0426235 113.848191,66.0426235 C113.848191,66.0426235 102.23544,65.0475049 94.1899532,86.6426945 C93.6842186,87.999022 92.8346803,89.7636033 91.8686794,91.6071242 C91.1212451,93.0320256 89.5330471,93.1237232 88.7537054,94.4920113 C88.2527569,95.3715111 88.5391271,97.5897963 88.0956123,98.3433116 C86.8879117,100.398136 85.998489,101.8342 85.998489,101.8342 C85.998489,101.8342 98.8524431,108.564009 108.645666,120.188876" id="Fill-81" fill="#E5E3EA"></path>
                                <path d="M191.309258,177.361309 C152.855882,184.222683 121.104684,177.426693 121.104684,177.426693 C115.814414,170.594024 120.282268,159.345516 120.282268,159.345516 C115.219338,110.260973 112.777613,66.1950808 112.777613,66.1950808 C112.777613,66.1950808 113.85529,65.6855609 114.926586,65.2773072 C116.533929,64.6657239 117.928288,64.8738376 118.904659,64.6657239 C120.627667,64.2989334 121.229124,64.2415227 124.100005,63.5948551 C127.475823,62.8349608 132.005897,62.4737519 136.838294,60.5178017 C137.072017,60.4229146 137.340041,60.5241807 137.482827,60.7322944 C138.501475,62.2098222 143.187098,67.8775329 155.163595,67.8775329 C165.558275,67.8775329 171.162037,62.5455153 172.628987,61.1644693 C172.85553,60.950774 173.491288,60.9627345 173.705866,61.0600138 C175.820539,62.0144664 176.516921,62.2146065 179.849664,62.8812083 C186.990572,64.3092992 192.056692,64.995038 193.111237,65.2262754 C194.264694,65.4798393 195.147736,65.9925486 196.324326,66.348176 C196.324326,66.348176 192.122103,128.950544 190.955882,152.141272 C190.892865,153.387562 191.733629,155.062838 191.683374,157.204576 C191.626738,159.55363 190.816287,160.56948 190.816287,162.863515 C190.816287,162.863515 195.457239,171.581966 191.309258,177.361309" id="Fill-83" fill="#E5E3EA"></path>
                                <path d="M199.66393,120.800698 C199.66393,120.800698 198.73542,119.376594 197.353823,117.162296 C196.946204,116.506857 196.086296,116.377683 195.610874,115.600247 C195.209636,114.944011 195.023775,113.568546 194.59063,112.846926 C191.703795,108.032402 188.463584,102.069664 186.720634,97.7136279 C182.342919,86.7737025 183.01218,66.0420654 194.002734,66.0420654 C194.002734,66.0420654 205.615484,65.0477442 213.660971,86.6429337 C214.107677,87.8413818 214.824799,89.3220991 215.654395,90.8761745 C216.336419,92.1543597 218.072189,92.6192268 218.818826,93.8806672 C219.495266,95.0256915 219.184965,96.9792496 219.776052,97.9281207 C220.986944,99.8737051 221.878759,101.222059 221.878759,101.222059 C221.878759,101.222059 208.820597,107.850601 199.66393,120.800698" id="Fill-85" fill="#E5E3EA"></path>
                                <path d="M219.371704,128.991848 C219.335808,128.991848 219.299912,128.988658 219.264016,128.981482 C218.969669,128.922476 218.779021,128.63622 218.83805,128.34199 C220.100791,122.032396 229.145782,117.543997 229.529471,117.355818 C229.803078,117.223454 230.125344,117.335883 230.256963,117.604597 C230.389379,117.874108 230.277702,118.199436 230.008084,118.331799 C229.918743,118.375655 221.061208,122.773154 219.903762,128.554888 C219.85271,128.813237 219.624571,128.991848 219.371704,128.991848" id="Fill-87" fill="#EA967D"></path>
                                <path d="M89.0664791,131.847072 C88.8152072,131.847072 88.5894613,131.671651 88.5352185,131.415695 C86.9645696,123.961874 79.0419264,118.344398 78.9621576,118.288582 C78.7156718,118.11635 78.6566428,117.777467 78.8281459,117.531877 C79.0004466,117.286287 79.3394643,117.226484 79.5851524,117.398716 C79.9257654,117.636333 87.9409405,123.322383 89.5993351,131.191634 C89.6607571,131.485066 89.4733003,131.773714 89.1797509,131.835112 C89.1414618,131.843086 89.1039704,131.847072 89.0664791,131.847072" id="Fill-89" fill="#EA967D"></path>
                                <path d="M155.978832,194.498479 C155.768243,194.498479 155.597537,194.327841 155.597537,194.118133 L155.597537,188.815618 C155.597537,188.605112 155.768243,188.435272 155.978832,188.435272 C156.189422,188.435272 156.360128,188.605112 156.360128,188.815618 L156.360128,194.118133 C156.360128,194.327841 156.189422,194.498479 155.978832,194.498479" id="Fill-91" fill="#4670B2"></path>
                                <path d="M156.115157,219.787408 C155.921319,219.787408 155.7554,219.639097 155.737053,219.442146 C155.717908,219.233235 155.871065,219.047448 156.080857,219.028311 C156.143077,219.021932 162.321175,218.408754 162.468747,215.310172 C162.87158,206.850866 162.876366,188.994548 162.876366,188.815139 C162.876366,188.605431 163.046274,188.434794 163.256863,188.434794 C163.467453,188.434794 163.638159,188.605431 163.638159,188.815139 C163.638159,188.995345 163.633372,206.869206 163.228944,215.346053 C163.050262,219.101669 156.432637,219.7595 156.151053,219.785813 C156.139088,219.786611 156.12792,219.787408 156.115157,219.787408" id="Fill-93" fill="#4670B2"></path>
                                <path d="M155.978832,227.945068 C155.91741,227.945068 155.855988,227.929918 155.799352,227.900415 L137.438156,218.111096 C137.252295,218.012222 137.182896,217.781782 137.281809,217.595994 C137.38152,217.411004 137.613648,217.341633 137.796318,217.43971 L155.597537,226.930015 L155.597537,198.808347 C155.597537,198.598638 155.768243,198.428001 155.978832,198.428001 C156.189422,198.428001 156.360128,198.598638 156.360128,198.808347 L156.360128,227.564722 C156.360128,227.697883 156.289931,227.822273 156.174266,227.890847 C156.114439,227.926728 156.046636,227.945068 155.978832,227.945068" id="Fill-97" fill="#4670B2"></path>
                                <path d="M194.062241,207.448815 C194.025547,207.448815 193.988056,207.443233 193.950565,207.43207 C186.793703,205.239301 185.587597,187.796817 185.538938,187.055263 C185.526175,186.845554 185.684915,186.664551 185.895505,186.650996 C186.105297,186.634251 186.285575,186.796915 186.299933,187.006623 C186.310303,187.182842 187.516408,204.664396 194.173918,206.70407 C194.374935,206.766265 194.487409,206.979163 194.425987,207.180101 C194.37653,207.343562 194.22497,207.448815 194.062241,207.448815" id="Fill-115" fill="#4670B2"></path>
                                <path d="M117.826902,208.060637 C117.680925,208.060637 117.542925,207.976913 117.47911,207.834981 C117.393757,207.643612 117.47911,207.418754 117.672151,207.332638 C124.561787,204.255584 125.09225,188.252355 125.097036,188.091286 C125.10262,187.884767 125.27173,187.721306 125.477534,187.721306 L125.487904,187.721306 C125.697696,187.727685 125.863615,187.90231 125.857233,188.112018 C125.838887,188.79058 125.308424,204.755536 117.981654,208.027148 C117.932197,208.050271 117.878752,208.060637 117.826902,208.060637" id="Fill-117" fill="#4670B2"></path>
                                <path d="M155.315873,72.6368789 C149.734446,72.6368789 144.909228,71.6018918 140.97423,69.5606229 C140.822669,69.4824805 140.764438,69.2974906 140.841814,69.1459901 C140.921583,68.9944897 141.108242,68.937079 141.25741,69.0152213 C145.103864,71.0102427 149.834157,72.0221061 155.315873,72.0221061 C164.744553,72.0221061 170.516627,68.1724006 173.117092,65.8783652 C173.243925,65.7667333 173.438561,65.7778965 173.551035,65.9054758 C173.663509,66.0330551 173.651544,66.2268161 173.523913,66.3400428 C170.858038,68.6914889 164.947166,72.6368789 155.315873,72.6368789" id="Fill-129" fill="#C2C0CC"></path>
                                <path d="M139.792135,68.8492088 C139.737095,68.8492088 139.681257,68.8348561 139.6318,68.8037586 C138.243822,67.9553563 136.981081,66.9634272 135.878675,65.8542846 C135.758224,65.7338816 135.759022,65.5393232 135.88027,65.4189202 C135.999924,65.300112 136.19456,65.300112 136.315011,65.4205149 C137.382318,66.4945732 138.60677,67.4562022 139.952471,68.2790888 C140.09765,68.3675969 140.143118,68.5573711 140.054575,68.7016952 C139.997141,68.7965823 139.895835,68.8492088 139.792135,68.8492088" id="Fill-131" fill="#C2C0CC"></path>
                                <path d="M192.295441,125.493065 C192.288261,125.493065 192.281082,125.493065 192.273903,125.492267 C192.104793,125.480307 191.977163,125.333591 191.988331,125.163751 L194.437235,90.4940745 C194.4492,90.3250319 194.588795,90.1966553 194.765882,90.2086158 C194.934992,90.2205764 195.062622,90.3672926 195.050657,90.5371325 L192.602551,125.206809 C192.590585,125.369472 192.455776,125.493065 192.295441,125.493065" id="Fill-133" fill="#C2C0CC"></path>
                                <path d="M116.610108,120.19063 C116.452963,120.19063 116.318952,120.071821 116.303796,119.912347 L113.855689,94.2154831 C113.838938,94.0464405 113.963377,93.8965349 114.133285,93.8797901 C114.297609,93.8606532 114.451563,93.9882325 114.467516,94.1572751 L116.91642,119.854139 C116.932374,120.023182 116.808733,120.173088 116.638825,120.189035 C116.629253,120.19063 116.61968,120.19063 116.610108,120.19063" id="Fill-135" fill="#C2C0CC"></path>
                                <path d="M211.981358,102.79878 C211.883243,102.79878 211.786722,102.751735 211.726896,102.664024 C211.631971,102.523687 211.667867,102.332318 211.80826,102.236633 C214.075291,100.699303 216.394172,99.4386596 218.701885,98.4905859 C218.858232,98.4259989 219.039307,98.5009517 219.103122,98.6580338 C219.167735,98.8151158 219.092752,98.9945242 218.935608,99.0591112 C216.667779,99.9912375 214.386389,101.231946 212.154457,102.745356 C212.101012,102.782035 212.041185,102.79878 211.981358,102.79878" id="Fill-137" fill="#C2C0CC"></path>
                                <path d="M198.007848,116.825566 C197.950415,116.825566 197.891386,116.809619 197.840334,116.776129 C197.697547,116.682837 197.657663,116.493062 197.750195,116.350333 C197.795663,116.279367 202.458153,109.183566 210.045767,103.495123 C210.181374,103.393857 210.373617,103.420171 210.476519,103.556521 C210.578623,103.692871 210.551501,103.885038 210.415097,103.987101 C202.917622,109.607767 198.311768,116.615858 198.265502,116.686026 C198.206473,116.776129 198.108357,116.825566 198.007848,116.825566" id="Fill-139" fill="#C2C0CC"></path>
                                <path d="M109.971504,116.723503 C109.87977,116.723503 109.788834,116.682039 109.728209,116.603897 C102.504341,107.277052 88.8391378,99.3240775 88.7011377,99.2451378 C88.554363,99.1598191 88.5041086,98.972437 88.5886636,98.8249234 C88.6740163,98.6782072 88.8622708,98.6279729 89.0098432,98.7124942 C89.1478433,98.7922312 102.917544,106.805806 110.214799,116.227538 C110.319296,116.362294 110.29377,116.555257 110.159759,116.658916 C110.103921,116.702771 110.037712,116.723503 109.971504,116.723503" id="Fill-141" fill="#C2C0CC"></path>
                                <path d="M195.559423,97.7570049 C195.53629,97.7570049 195.510764,97.7546128 195.486833,97.7482338 C195.321712,97.7083653 195.220405,97.5425122 195.26029,97.3774565 C198.064165,85.7685371 195.291399,75.6076427 195.26348,75.5063767 C195.217214,75.3429157 195.312937,75.1730757 195.476463,75.1276256 C195.638394,75.0805807 195.809897,75.1770626 195.855365,75.3405236 C195.884082,75.4433844 198.700721,85.7509949 195.858556,97.5217806 C195.824255,97.6621178 195.699018,97.7570049 195.559423,97.7570049" id="Fill-143" fill="#C2C0CC"></path>
                                <path d="M113.549457,100.408183 C113.419433,100.408183 113.298185,100.325256 113.256705,100.194487 C111.093373,93.4367709 110.594818,79.4492948 110.590032,79.3089576 C110.584448,79.1391177 110.717662,78.9971857 110.88757,78.9908067 C111.06705,78.982833 111.199466,79.118386 111.205848,79.288226 C111.209836,79.4277658 111.705201,93.3307206 113.842208,100.007105 C113.894856,100.168971 113.804717,100.342001 113.642786,100.39383 C113.611676,100.403398 113.580567,100.408183 113.549457,100.408183" id="Fill-145" fill="#C2C0CC"></path>
                                <path d="M161.53928,136.280134 C151.722127,136.280134 140.258544,131.6506 140.130914,131.597974 C139.973769,131.534184 139.897989,131.353978 139.961804,131.196896 C140.027214,131.039814 140.206694,130.964862 140.363041,131.028651 C140.504232,131.086062 154.56828,136.764936 164.735619,135.475587 C164.902335,135.454856 165.058682,135.573664 165.079422,135.741909 C165.10096,135.910952 164.981307,136.064844 164.812994,136.085576 C163.756057,136.219534 162.65764,136.280134 161.53928,136.280134" id="Fill-147" fill="#C2C0CC"></path>
                                <path d="M157.070948,143.903078 C148.692027,143.903078 141.374829,143.044309 141.252783,143.029957 C141.083673,143.010022 140.96402,142.856927 140.983962,142.687885 C141.003904,142.519639 141.14669,142.400034 141.32617,142.419171 C141.528783,142.443092 161.80523,144.821649 173.442709,141.612232 C173.60464,141.566782 173.775345,141.663263 173.821611,141.826724 C173.867079,141.990983 173.770559,142.160025 173.606235,142.205475 C168.868762,143.511569 162.728155,143.903078 157.070948,143.903078" id="Fill-149" fill="#C2C0CC"></path>
                                <path d="M276.292688,102.787457 C275.917775,103.282624 275.240537,103.434125 274.683751,103.15664 C272.986269,102.30744 266.662194,98.3006522 265.450505,90.5350594 C265.426574,90.3803695 265.520702,90.2272743 265.634771,90.1196293 C266.390182,89.409172 267.085767,88.7999808 267.55401,88.3989034 C267.820438,88.1708554 268.229652,88.3016242 268.314207,88.6421014 C268.850254,90.783839 270.892337,96.9770169 277.050493,99.7383115 C277.566597,99.969549 277.752459,100.608243 277.454921,101.089057 C277.163764,101.559506 276.768111,102.159926 276.292688,102.787457" id="Fill-151" fill="#192064"></path>
                                <path d="M272.565967,98.9886236 C272.565967,99.2629191 272.343412,99.4853856 272.068209,99.4853856 C271.793804,99.4853856 271.571249,99.2629191 271.571249,98.9886236 C271.571249,98.7143281 271.793804,98.4910643 272.068209,98.4910643 C272.343412,98.4910643 272.565967,98.7143281 272.565967,98.9886236" id="Fill-153" fill="#C1C4D6"></path>
                                <path d="M274.554764,100.32701 C274.554764,100.601306 274.332209,100.82457 274.057804,100.82457 C273.782602,100.82457 273.560047,100.601306 273.560047,100.32701 C273.560047,100.052715 273.782602,99.829451 274.057804,99.829451 C274.332209,99.829451 274.554764,100.052715 274.554764,100.32701" id="Fill-155" fill="#C1C4D6"></path>
                                <path d="M120.275248,185.960234 C120.275248,185.960234 155.9072,192.414949 192.040101,185.960234 C191.733788,181.065972 191.38121,177.362186 191.38121,177.362186 C191.38121,177.362186 161.352222,182.319439 121.116809,177.471425 C120.635803,182.053117 120.275248,185.960234 120.275248,185.960234" id="Fill-157" fill="#5C2552"></path>
                                <path d="M146.543692,179.790179 L146.543692,189.349059 C146.543692,190.199853 147.209762,190.903134 148.060098,190.934232 C152.813524,191.108059 157.925113,191.137561 163.318285,190.950179 C164.171812,190.919879 164.852241,190.215003 164.852241,189.362614 L164.852241,179.814898 C164.852241,178.92264 164.123951,178.210588 163.232933,178.234509 C158.58879,178.35571 153.551386,178.364481 148.182144,178.211385 C147.289531,178.18587 146.543692,178.897124 146.543692,179.790179" id="Fill-159" fill="#FFFFFF"></path>
                                <path d="M148.716277,181.602523 L148.716277,187.589182 C148.716277,188.26615 149.245942,188.824309 149.923179,188.845838 C153.484061,188.959862 157.30818,188.978999 161.343687,188.856204 C162.02252,188.83627 162.567341,188.275718 162.567341,187.597953 L162.567341,181.619268 C162.567341,180.914392 161.995399,180.350651 161.291837,180.366599 C157.807534,180.446336 154.032871,180.451917 150.010925,180.351449 C149.305768,180.333906 148.716277,180.89685 148.716277,181.602523" id="Fill-161" fill="#5C2552"></path>
                            </g>
                        </g>
                        <g id="编组-4" transform="translate(315.000000, 184.000000)">
                            <path d="M28.0840549,48.0397339 L15.9505134,48.0397339 L15.9505134,6.05142419 C15.9505134,2.70934032 18.6524716,4.61852778e-13 21.9855662,4.61852778e-13 L22.0489074,4.61852778e-13 C25.382002,4.61852778e-13 28.0840549,2.70934032 28.0840549,6.05142419 L28.0840549,48.0397339 Z" id="Fill-1" fill="#5BA02E"></path>
                            <path d="M34.4429037,58.2475755 L22.2108419,58.2475755 L22.2108419,36.2011291 C22.2108419,32.929341 24.8669195,30.2770609 28.1433919,30.2770609 L28.5104493,30.2770609 C31.7868262,30.2770609 34.4429037,32.929341 34.4429037,36.2011291 L34.4429037,58.2475755 Z" id="Fill-3" fill="#92C110"></path>
                            <path d="M16.2439826,47.8330222 L4.0119208,47.8330222 L4.0119208,24.0006553 C4.0119208,20.7292405 6.65732372,18.0771556 9.92049605,18.0771556 L10.3354073,18.0771556 C13.5985796,18.0771556 16.2439826,20.7292405 16.2439826,24.0006553 L16.2439826,47.8330222 Z" id="Fill-5" fill="#92C110"></path>
                            <path d="M2.37907044,83 C1.06512966,83 0,81.9856243 0,80.7342935 L0,49.2657065 C0,48.0143757 1.06512966,47 2.37907044,47 L35.6209296,47 C36.9348703,47 38,48.0143757 38,49.2657065 L38,80.7342935 C38,81.9856243 36.9348703,83 35.6209296,83 L2.37907044,83 Z" id="Fill-7" fill="#CAD5EE"></path>
                            <path d="M20.1224412,9.15039558 C20.1224412,9.80775093 19.5881573,10.3406302 18.9290693,10.3406302 C18.2699813,10.3406302 17.7356974,9.80775093 17.7356974,9.15039558 C17.7356974,8.49304022 18.2699813,7.96016091 18.9290693,7.96016091 C19.5881573,7.96016091 20.1224412,8.49304022 20.1224412,9.15039558" id="Fill-9" fill="#92C110"></path>
                            <path d="M26.3876435,21.3503009 C26.3876435,22.0076563 25.8533597,22.5405356 25.1942716,22.5405356 C24.5351836,22.5405356 24.0008998,22.0076563 24.0008998,21.3503009 C24.0008998,20.6929455 24.5351836,20.1600662 25.1942716,20.1600662 C25.8533597,20.1600662 26.3876435,20.6929455 26.3876435,21.3503009" id="Fill-11" fill="#92C110"></path>
                            <path d="M7.89037941,27.3014742 C7.89037941,27.9588296 7.35609554,28.4917089 6.69700753,28.4917089 C6.03791952,28.4917089 5.50363565,27.9588296 5.50363565,27.3014742 C5.50363565,26.6441189 6.03791952,26.1112396 6.69700753,26.1112396 C7.35609554,26.1112396 7.89037941,26.6441189 7.89037941,27.3014742" id="Fill-13" fill="#5BA02E"></path>
                            <path d="M13.8572388,39.5013796 C13.8572388,40.1587349 13.3229549,40.6916142 12.6638669,40.6916142 C12.0047789,40.6916142 11.470495,40.1587349 11.470495,39.5013796 C11.470495,38.8440242 12.0047789,38.3111449 12.6638669,38.3111449 C13.3229549,38.3111449 13.8572388,38.8440242 13.8572388,39.5013796" id="Fill-15" fill="#5BA02E"></path>
                        </g>
                        <g id="编组" opacity="0.567708333" transform="translate(360.000000, 158.000000)">
                            <g>
                                <mask id="mask-2" fill="white">
                                    <use xlink:href="#path-1"></use>
                                </mask>
                                <g id="Clip-2"></g>
                                <path d="M4.54920668,9.22289531 L34.1049548,9.210333 C36.6158694,9.20919101 38.6508516,7.17074877 38.6497108,4.65838297 C38.6485689,2.14601718 36.6124454,0.109858904 34.1015308,0.111000409 L4.54464138,0.123562718 C2.03372673,0.124704702 -0.00125545732,2.16314695 -0.000114612335,4.67551274 C0.00102719236,7.18787853 2.03715071,9.22403681 4.54920668,9.22289531" id="Fill-1" fill="#E4E6EF" mask="url(#mask-2)"></path>
                            </g>
                            <g transform="translate(11.204273, 17.988733)">
                                <mask id="mask-4" fill="white">
                                    <use xlink:href="#path-3"></use>
                                </mask>
                                <g id="Clip-4"></g>
                                <path d="M4.57454787,9.09843398 L34.1596681,9.08592315 C36.6730781,9.08478585 38.7100826,7.05469787 38.7089406,4.55262866 C38.7077977,2.05055945 36.6696507,0.0227460837 34.1562407,0.0238829098 L4.57112049,0.036393734 C2.05656806,0.0375310382 0.0195635271,2.06648171 0.0207055058,4.56968822 C0.0218484452,7.07175744 2.0611379,9.0995708 4.57454787,9.09843398" id="Fill-3" fill="#E4E6EF" mask="url(#mask-4)"></path>
                            </g>
                            <path d="M18.3094224,9.2759467 L18.3094224,9.27369078 L33.8826868,9.26692301 C31.3820116,9.26805097 29.357385,11.2814626 29.3585211,13.7629783 C29.3585211,16.244494 31.3865562,18.2556496 33.8860953,18.2545217 L18.3128309,18.2612895 L18.3128309,18.2601615 C20.7953276,18.2376023 22.7995035,16.2343423 22.7983673,13.7652342 C22.7972312,11.297254 20.790783,9.29625001 18.3094224,9.2759467" id="Fill-5" fill="#E4E6EF"></path>
                        </g>
                        <rect id="矩形" fill="#E5E3EA" x="0" y="267" width="438" height="1"></rect>
                        <g id="编组" transform="translate(38.000000, 50.000000)">
                            <polygon id="Fill-1" fill="#CED0DB" points="28.4135405 0.318779601 17.2594713 36.0220949 24.003052 36.0220949 35.1581822 0.318779601"></polygon>
                            <g transform="translate(0.000000, 4.144135)">
                                <g>
                                    <mask id="mask-6" fill="white">
                                        <use xlink:href="#path-5"></use>
                                    </mask>
                                    <g id="Clip-3"></g>
                                    <path d="M12.5112899,0.362423427 L5.23429976,0.362423427 L0.647897996,0.362423427 C0.289871807,0.362423427 -0.000215678428,0.656924258 -0.000215678428,1.0203974 L-0.000215678428,5.67657598 L-0.000215678428,22.9842475 L-0.000215678428,27.6404261 C-0.000215678428,28.0038993 0.289871807,28.2984001 0.647897996,28.2984001 L5.23429976,28.2984001 L12.5112899,28.2984001 C12.8693161,28.2984001 13.1594036,28.0038993 13.1594036,27.6404261 L13.1594036,23.6422215 C13.1594036,23.2787484 12.8693161,22.9842475 12.5112899,22.9842475 L5.23429976,22.9842475 L5.23429976,5.67657598 L12.5112899,5.67657598 C12.8693161,5.67657598 13.1594036,5.38207515 13.1594036,5.0196968 L13.1594036,1.0203974 C13.1594036,0.656924258 12.8693161,0.362423427 12.5112899,0.362423427" id="Fill-2" fill="#E4E6EF" mask="url(#mask-6)"></path>
                                </g>
                                <g transform="translate(39.684831, 0.000000)">
                                    <mask id="mask-8" fill="white">
                                        <use xlink:href="#path-7"></use>
                                    </mask>
                                    <g id="Clip-5"></g>
                                    <path d="M12.540083,0.362423427 L7.95368121,0.362423427 L0.676691066,0.362423427 C0.318664877,0.362423427 0.0285773917,0.656924258 0.0285773917,1.0203974 L0.0285773917,5.0196968 C0.0285773917,5.38207515 0.318664877,5.67657598 0.676691066,5.67657598 L7.95368121,5.67657598 L7.95368121,22.9842475 L0.676691066,22.9842475 C0.318664877,22.9842475 0.0285773917,23.2787484 0.0285773917,23.6422215 L0.0285773917,27.6404261 C0.0285773917,28.0038993 0.318664877,28.2984001 0.676691066,28.2984001 L7.95368121,28.2984001 L12.540083,28.2984001 C12.8981092,28.2984001 13.1881966,28.0038993 13.1881966,27.6404261 L13.1881966,23.6422215 L13.1881966,5.0196968 L13.1881966,1.0203974 C13.1881966,0.656924258 12.8981092,0.362423427 12.540083,0.362423427" id="Fill-4" fill="#E4E6EF" mask="url(#mask-8)"></path>
                                </g>
                            </g>
                        </g>
                        <g id="编组" transform="translate(12.000000, 220.000000)">
                            <g transform="translate(32.792995, 19.987481)">
                                <mask id="mask-10" fill="white">
                                    <use xlink:href="#path-9"></use>
                                </mask>
                                <g id="Clip-2"></g>
                                <path d="M9.95442654,5.53157541 C9.67430469,8.26135601 7.23424957,10.247692 4.50438285,9.967579 C1.77363525,9.68746599 -0.21276341,7.24748784 0.0682393272,4.51682637 C0.348361178,1.78704576 2.7884163,-0.19929024 5.51828301,0.0817036333 C8.24814973,0.361816648 10.2345484,2.8017948 9.95442654,5.53157541" id="Fill-1" fill="#E4E6EF" mask="url(#mask-10)"></path>
                            </g>
                            <path d="M74.6686068,7.32373409 C74.3862208,10.0686313 71.9264432,12.0659669 69.1745115,11.7843027 C66.4216918,11.5026385 64.4192375,9.0482629 64.7016235,6.30336573 C64.9848975,3.55846857 67.4446751,1.56113294 70.1966068,1.84368286 C72.9485385,2.1244613 74.9509929,4.57883692 74.6686068,7.32373409" id="Fill-3" fill="#E4E6EF"></path>
                            <path d="M9.99343624,5.50700316 C9.71131098,8.25217882 7.25068806,10.2486702 4.49812683,9.96730194 C1.74638336,9.68511811 -0.256297111,7.231913 0.0266459032,4.48673734 C0.308771163,1.74156168 2.76939408,-0.254929715 5.52113756,0.0264385569 C8.27369879,0.307806829 10.2763793,2.7618275 9.99343624,5.50700316" id="Fill-5" fill="#E4E6EF"></path>
                            <g transform="translate(92.002570, 12.719306)">
                                <mask id="mask-12" fill="white">
                                    <use xlink:href="#path-11"></use>
                                </mask>
                                <g id="Clip-8"></g>
                                <path d="M10.8417803,5.99386695 C10.5355353,8.93944676 7.87315122,11.0816866 4.89390095,10.7797778 C1.91465068,10.4769939 -0.252076791,7.84469918 0.0532830857,4.89911937 C0.359528063,1.95353957 3.02191214,-0.188700295 6.00116242,0.113208509 C8.97952759,0.415992411 11.1471402,3.04828714 10.8417803,5.99386695" id="Fill-7" fill="#E4E6EF" mask="url(#mask-12)"></path>
                            </g>
                            <polygon id="Fill-9" fill="#E4E6EF" points="37.8716948 25.4386122 37.7495344 25.3619733 5.46549924 4.95731054 5.72245724 4.54260932 37.8851746 24.8714848 70.4615522 6.44665848 70.5685478 6.48923561 98.3789863 17.5192664 98.2020644 17.9731386 70.497779 6.98568492"></polygon>
                        </g>
                        <g id="编组-8" transform="translate(279.000000, 0.000000)">
                            <g id="网页" transform="translate(0.000000, 33.000000)">
                                <g>
                                    <rect id="矩形" fill="#E2E7F2" fill-rule="nonzero" x="0" y="3.43791469" width="101.914692" height="74.5472986" rx="2.97878673"></rect>
                                    <g id="分组-2" transform="translate(29.398469, 17.325498)">
                                        <path d="M0.0165984688,52.2253206 L0.0165984688,1.03138692 C0.0165984688,0.468527618 0.472886087,0.01224 1.03574539,0.01224 L63.0511504,0.01224 C63.6140097,0.01224 64.0702973,0.468527618 64.0702973,1.03138692 L64.0702973,52.4255101 L64.0702973,52.4255101 C64.0702973,52.8777793 63.6942069,53.2444675 63.2303411,53.2444675 L1.03574539,53.2444675 C0.472886087,53.2444675 0.0165984688,52.7881799 0.0165984688,52.2253206 Z" id="Fill-30" fill="#FFFFFF"></path>
                                        <path d="M6.33482289,40.3226821 C5.87085206,40.3226821 5.49486664,39.9559939 5.49486664,39.5037247 L5.49486664,6.24074844 C5.49486664,5.78837687 5.87085206,5.42179109 6.33482289,5.42179109 L58.0457846,5.42179109 C58.5096505,5.42179109 58.8857409,5.78837687 58.8857409,6.24074844 L58.8857409,39.5037247 C58.8857409,39.9559939 58.5096505,40.3226821 58.0457846,40.3226821 L6.33482289,40.3226821 Z" id="Fill-32" fill="#CED7EC"></path>
                                        <path d="M12.7972678,10.2334624 L9.13117375,10.2334624 C8.84747853,10.2334624 8.6175405,10.0092728 8.6175405,9.73266995 C8.6175405,9.45616948 8.84747853,9.23197991 9.13117375,9.23197991 L12.7972678,9.23197991 C13.080963,9.23197991 13.3109011,9.45616948 13.3109011,9.73266995 C13.3109011,10.0092728 13.080963,10.2334624 12.7972678,10.2334624" id="Fill-34" fill="#B2BED9"></path>
                                        <path d="M12.8566107,12.6365494 L9.19041167,12.6365494 C8.90682144,12.6365494 8.67688341,12.4123598 8.67688341,12.135757 C8.67688341,11.8592565 8.90682144,11.6350669 9.19041167,11.6350669 L12.8566107,11.6350669 C13.1403059,11.6350669 13.370244,11.8592565 13.370244,12.135757 C13.370244,12.4123598 13.1403059,12.6365494 12.8566107,12.6365494" id="Fill-36" fill="#B2BED9"></path>
                                        <path d="M5.49497164,31.1058188 C11.0514922,31.1058188 9.57609101,24.2409301 17.9915969,24.2409301 C26.4071028,24.2409301 25.9688445,30.3778578 32.5322626,30.3778578 C39.1979584,30.3778578 38.7570047,12.7515071 45.1429821,12.7515071 C51.8837361,12.7515071 50.3621798,28.7234855 58.7585925,28.7234855 L58.7585925,39.5477335 C58.7585925,40.0003098 58.3820821,40.3671003 57.9179013,40.3666911 L6.33419293,40.3233884 C5.87064207,40.322979 5.49497164,39.9564955 5.49497164,39.5044311 L5.49497164,31.1058188 Z" id="Fill-38" fill="#393D65"></path>
                                        <path d="M5.30543551,33.7581631 C13.7018482,33.7581631 12.5116302,14.9853697 17.9227334,14.9853697 C23.0770199,14.9853697 21.5289805,33.7581631 32.2034596,33.7581631 C38.7667727,33.7581631 40.8312067,26.1056915 45.4677337,26.1056915 C50.1042607,26.1056915 53.2020509,33.7581631 58.7585715,33.7581631" id="Stroke-40" stroke="#FFFFFF" stroke-width="0.5"></path>
                                        <line x1="6.05665038" y1="45.1790593" x2="57.8497178" y2="45.1790593" id="Stroke-42" stroke="#E4E6EF" stroke-width="0.76436019" stroke-linecap="round" stroke-linejoin="round"></line>
                                        <line x1="6.05665038" y1="48.637854" x2="49.5722639" y2="48.637854" id="Stroke-44" stroke="#E4E6EF" stroke-width="0.76436019" stroke-linecap="round" stroke-linejoin="round"></line>
                                    </g>
                                    <path d="M2.72985782,0 L99.1336493,0 C100.641308,0 101.863507,1.191644 101.863507,2.66161137 L101.863507,10.5932133 L0,10.5932133 L0,2.66161137 C0,1.191644 1.22219898,0 2.72985782,0 Z" id="路径" fill="#393D65" fill-rule="nonzero"></path>
                                    <ellipse id="椭圆形" fill="#FFFFFF" fill-rule="nonzero" cx="5.83507109" cy="5.29660664" rx="1.94843602" ry="1.89972512"></ellipse>
                                    <ellipse id="椭圆形" fill="#FFFFFF" fill-rule="nonzero" cx="13.1124171" cy="5.29660664" rx="1.94843602" ry="1.89972512"></ellipse>
                                    <ellipse id="椭圆形" fill="#FFFFFF" fill-rule="nonzero" cx="20.3909005" cy="5.29660664" rx="1.94843602" ry="1.89972512"></ellipse>
                                    <polygon id="路径" fill="#FFFFFF" fill-rule="nonzero" points="33.8377251 42.8075829 32.5842654 41.888218 33.8377251 40.9710711 35.0911848 41.888218"></polygon>
                                    <rect id="矩形" fill="#B2BED9" fill-rule="nonzero" x="7.25197229" y="38.0455166" width="14.5819905" height="3.58984834" rx="0.804028436"></rect>
                                    <rect id="矩形" fill="#B2BED9" fill-rule="nonzero" x="7.25197229" y="44.9568341" width="14.5819905" height="3.48116588" rx="0.791829384"></rect>
                                    <rect id="矩形" fill="#B2BED9" fill-rule="nonzero" x="7.25197229" y="51.7273081" width="14.5819905" height="3.48116588" rx="0.791829384"></rect>
                                    <ellipse id="椭圆形" fill="#FFFFFF" fill-rule="nonzero" cx="14.5429676" cy="25.0856872" rx="7.27962085" ry="7.09763033"></ellipse>
                                    <path d="M14.5429676,32.1833194 C16.6410987,32.1844559 18.6323063,31.2807299 19.9822093,29.714673 C18.9185696,27.7459269 16.8240672,26.5135015 14.5418301,26.5135015 C12.259593,26.5135015 10.1650906,27.7459269 9.10145097,29.714673 C10.4520607,31.2810758 12.4441103,32.1848059 14.5429676,32.1833194 L14.5429676,32.1833194 Z" id="路径" fill="#393D65" fill-rule="nonzero"></path>
                                    <ellipse id="椭圆形" fill="#393D65" fill-rule="nonzero" cx="14.5816405" cy="24.1263981" rx="2.73781991" ry="2.66937441"></ellipse>
                                </g>
                            </g>
                            <g id="编组" transform="translate(72.093497, 0.000000)">
                                <g id="分组">
                                    <g>
                                        <mask id="mask-14" fill="white">
                                            <use xlink:href="#path-13"></use>
                                        </mask>
                                        <g id="Clip-2"></g>
                                        <path d="M6.63748869e-06,29.6707074 C6.63748869e-06,46.0573527 13.313216,59.3414214 29.735956,59.3414214 C46.1586296,59.3414214 59.4719053,46.0573527 59.4719053,29.6707074 C59.4719053,13.2839959 46.1586296,-6.62292724e-06 29.735956,-6.62292724e-06 C13.313216,-6.62292724e-06 6.63748869e-06,13.2839959 6.63748869e-06,29.6707074 Z" id="Fill-1" fill="#764ABC" mask="url(#mask-14)"></path>
                                    </g>
                                </g>
                                <g id="分组复制" transform="translate(14.950575, 11.538611)">
                                    <g id="分组" transform="translate(5.286391, 0.000000)" fill="#FFFFFF">
                                        <path d="M3.1613756,9.48304472 C3.1613756,5.99177531 5.99662438,3.16150219 9.49403148,3.16150219 C12.9914386,3.16150219 15.8266874,5.99177531 15.8266874,9.48304472 L15.8266874,12.6506808 L18.9930153,12.6506808 L18.9930153,9.48497082 C18.9930153,4.2507336 14.7423685,0.00759572845 9.49902834,0.00759572845 L9.49897887,0.00759572845 C4.25558928,0.00759572845 0.00499191389,4.2507336 0.00499191389,9.48497082 L0.00499191389,12.6506808 L3.1613756,12.6506808 L3.1613756,9.48304472 Z" id="Fill-1"></path>
                                    </g>
                                    <g id="分组" transform="translate(0.000000, 12.115542)">
                                        <mask id="mask-16" fill="white">
                                            <use xlink:href="#path-15"></use>
                                        </mask>
                                        <g id="Clip-4"></g>
                                        <path d="M28.4672402,19.6980623 L1.18615869,19.6980623 C0.533735579,19.6980623 2.47111246e-05,19.1662147 2.47111246e-05,18.5161788 L2.47111246e-05,1.18188837 C2.47111246e-05,0.531852473 0.533735579,4.92451434e-06 1.18615869,4.92451434e-06 L28.4672402,4.92451434e-06 C29.1195645,4.92451434e-06 29.6533742,0.531852473 29.6533742,1.18188837 L29.6533742,18.5161788 C29.6533742,19.1662147 29.1195645,19.6980623 28.4672402,19.6980623" id="Fill-3" fill="#FFFFFF" mask="url(#mask-16)"></path>
                                    </g>
                                    <path d="M14.8679747,17.5551725 C15.5004272,17.5551725 16.0132106,18.052779 16.0132106,18.666673 L16.0137277,22.3215151 C16.6633908,22.7104411 17.0981709,23.4200894 17.0981709,24.2310831 C17.0981709,25.4601106 16.0996485,26.4563867 14.8679387,26.4563867 C13.6363008,26.4563867 12.6377785,25.4601106 12.6377785,24.2310831 C12.6377785,23.4200894 13.0725585,22.7104411 13.7222009,22.3215151 L13.7227388,18.666673 C13.7227388,18.0937053 14.1694301,17.6220368 14.7431962,17.5616942 L14.8679747,17.5551725 Z" id="形状结合" fill="#764ABC"></path>
                                </g>
                            </g>
                        </g>
                    </g>
                </g>
            </g>
        </g>
    </g>
</svg>