<?xml version="1.0" standalone="no"?><!DOCTYPE svg PUBLIC "-//W3C//DTD SVG 1.1//EN" "http://www.w3.org/Graphics/SVG/1.1/DTD/svg11.dtd"><svg t="1604645545843" class="icon" viewBox="0 0 1024 1024" version="1.1" xmlns="http://www.w3.org/2000/svg" p-id="3764" xmlns:xlink="http://www.w3.org/1999/xlink" width="32" height="32"><defs><style type="text/css">@font-face { font-family: Georgia; src: local("Source Han Serif SC"); }
@font-face { font-family: Times; src: local("Source Han Serif SC"); }
@font-face { font-family: "Time New Roman"; src: local("Source Han Serif SC"); }
@font-face { font-family: Arial; src: local("Source Han Sans SC"); }
@font-face { font-family: Helvetica; src: local("Source Han Sans SC"); }
@font-face { font-family: "Helvetica Neue"; src: local("Source Han Sans SC"); }
@font-face { font-family: "Segoe UI"; src: local("Source Han Sans SC"); }
@font-face { font-family: Tahoma; src: local("Source Han Sans SC"); }
@font-face { font-family: Trebuchet; src: local("Source Han Sans SC"); }
@font-face { font-family: "Trebuchet MS"; src: local("Source Han Sans SC"); }
@font-face { font-family: Verdana; src: local("Source Han Sans SC"); }
@font-face { font-family: Consolas; src: local("Source Code Pro"); }
@font-face { font-family: Courier; src: local("Source Code Pro"); }
@font-face { font-family: "Courier New"; src: local("Source Code Pro"); }
@font-face { font-family: SimSun; src: local("Source Han Sans SC"); }
@font-face { font-family: SimSun-ExtB; src: local("Source Han Sans SC"); }
@font-face { font-family: 宋体; src: local("Source Han Sans SC"); }
@font-face { font-family: NSimSun; src: local("Source Han Sans SC"); }
@font-face { font-family: 新宋体; src: local("Source Han Sans SC"); }
@font-face { font-family: SimHei; src: local("Source Han Sans SC"); }
@font-face { font-family: 黑体; src: local("Source Han Sans SC"); }
@font-face { font-family: "Microsoft YaHei"; src: local("Source Han Sans SC"); }
@font-face { font-family: 微软雅黑; src: local("Source Han Sans SC"); }
@font-face { font-family: "STHeiti SC"; src: local("Source Han Sans SC"); }
@font-face { font-family: "PingFang SC"; src: local("Source Han Sans SC"); }
@font-face { font-family: 苹方-简; src: local("Source Han Sans SC"); }
@font-face { font-family: MingLiU; src: local("Source Han Sans TC"); }
@font-face { font-family: MingLiU-ExtB; src: local("Source Han Sans TC"); }
@font-face { font-family: PMingLiU; src: local("Source Han Sans TC"); }
@font-face { font-family: PMingLiU-ExtB; src: local("Source Han Sans TC"); }
@font-face { font-family: "Microsoft JhengHei"; src: local("Source Han Sans TC"); }
@font-face { font-family: 微軟正黑體; src: local("Source Han Sans TC"); }
@font-face { font-family: "STHeiti TC"; src: local("Source Han Sans TC"); }
@font-face { font-family: "PingFang TC"; src: local("Source Han Sans TC"); }
@font-face { font-family: 蘋方-繁; src: local("Source Han Sans TC"); }
@font-face { font-family: MingLiU_HKSCS; src: local("Source Han Sans HC"); }
@font-face { font-family: MingLiU_HKSCS-ExtB; src: local("Source Han Sans HC"); }
@font-face { font-family: "PingFang HK"; src: local("Source Han Sans HC"); }
@font-face { font-family: 蘋方-港; src: local("Source Han Sans HC"); }
@font-face { font-family: "MS Gothic"; src: local("Source Han Sans"); }
@font-face { font-family: "MS PGothic"; src: local("Source Han Sans"); }
@font-face { font-family: "MS UI Gothic"; src: local("Source Han Sans"); }
@font-face { font-family: "Yu Gothic"; src: local("Source Han Sans"); }
@font-face { font-family: "Yu Gothic UI"; src: local("Source Han Sans"); }
@font-face { font-family: "Malgun Gothic"; src: local("Source Han Sans K"); }
@font-face { font-family: Georgia; src: local("Source Han Serif SC"); }
@font-face { font-family: Times; src: local("Source Han Serif SC"); }
@font-face { font-family: "Time New Roman"; src: local("Source Han Serif SC"); }
@font-face { font-family: Arial; src: local("Source Han Sans SC"); }
@font-face { font-family: Helvetica; src: local("Source Han Sans SC"); }
@font-face { font-family: "Helvetica Neue"; src: local("Source Han Sans SC"); }
@font-face { font-family: "Segoe UI"; src: local("Source Han Sans SC"); }
@font-face { font-family: Tahoma; src: local("Source Han Sans SC"); }
@font-face { font-family: Trebuchet; src: local("Source Han Sans SC"); }
@font-face { font-family: "Trebuchet MS"; src: local("Source Han Sans SC"); }
@font-face { font-family: Verdana; src: local("Source Han Sans SC"); }
@font-face { font-family: Consolas; src: local("Source Code Pro"); }
@font-face { font-family: Courier; src: local("Source Code Pro"); }
@font-face { font-family: "Courier New"; src: local("Source Code Pro"); }
@font-face { font-family: SimSun; src: local("Source Han Sans SC"); }
@font-face { font-family: SimSun-ExtB; src: local("Source Han Sans SC"); }
@font-face { font-family: 宋体; src: local("Source Han Sans SC"); }
@font-face { font-family: NSimSun; src: local("Source Han Sans SC"); }
@font-face { font-family: 新宋体; src: local("Source Han Sans SC"); }
@font-face { font-family: SimHei; src: local("Source Han Sans SC"); }
@font-face { font-family: 黑体; src: local("Source Han Sans SC"); }
@font-face { font-family: "Microsoft YaHei"; src: local("Source Han Sans SC"); }
@font-face { font-family: 微软雅黑; src: local("Source Han Sans SC"); }
@font-face { font-family: "STHeiti SC"; src: local("Source Han Sans SC"); }
@font-face { font-family: "PingFang SC"; src: local("Source Han Sans SC"); }
@font-face { font-family: 苹方-简; src: local("Source Han Sans SC"); }
@font-face { font-family: MingLiU; src: local("Source Han Sans TC"); }
@font-face { font-family: MingLiU-ExtB; src: local("Source Han Sans TC"); }
@font-face { font-family: PMingLiU; src: local("Source Han Sans TC"); }
@font-face { font-family: PMingLiU-ExtB; src: local("Source Han Sans TC"); }
@font-face { font-family: "Microsoft JhengHei"; src: local("Source Han Sans TC"); }
@font-face { font-family: 微軟正黑體; src: local("Source Han Sans TC"); }
@font-face { font-family: "STHeiti TC"; src: local("Source Han Sans TC"); }
@font-face { font-family: "PingFang TC"; src: local("Source Han Sans TC"); }
@font-face { font-family: 蘋方-繁; src: local("Source Han Sans TC"); }
@font-face { font-family: MingLiU_HKSCS; src: local("Source Han Sans HC"); }
@font-face { font-family: MingLiU_HKSCS-ExtB; src: local("Source Han Sans HC"); }
@font-face { font-family: "PingFang HK"; src: local("Source Han Sans HC"); }
@font-face { font-family: 蘋方-港; src: local("Source Han Sans HC"); }
@font-face { font-family: "MS Gothic"; src: local("Source Han Sans"); }
@font-face { font-family: "MS PGothic"; src: local("Source Han Sans"); }
@font-face { font-family: "MS UI Gothic"; src: local("Source Han Sans"); }
@font-face { font-family: "Yu Gothic"; src: local("Source Han Sans"); }
@font-face { font-family: "Yu Gothic UI"; src: local("Source Han Sans"); }
@font-face { font-family: "Malgun Gothic"; src: local("Source Han Sans K"); }
</style></defs><path d="M988.2 470.6c-1.4-9-2.8-14.2-2.8-14.2s-3.6 4-9.4 11.8c-1.8-21.4-5.6-42.4-11.6-63.2-7.4-25.8-17-50.8-29-74.8-7.6-16-16.4-31.2-26.6-45.6-3.6-5.4-7.4-10.8-11.2-15.8-17.6-28.8-38-46.6-61.4-80-15.2-25.6-25.8-53.8-30.8-83.2-6.4 17.8-11.4 36-14.8 54.6-24.2-24.4-45-41.6-57.8-53.4C670.8 48.4 678 18.2 678 18.2S561.4 148.4 611.8 284c17.4 46 47.6 86.2 86.8 115.8 48.8 40.4 101.6 72 129.4 153.2-22.4-42.6-56.2-78.4-97.6-103 12.4 29.4 18.8 61.2 18.6 93 0 122-99.2 221-221.2 220.8-16.6 0-33-1.8-49-5.6-19-3.6-37.4-9.8-54.8-18.6-25.8-15.6-48-36.2-65.6-60.6l-0.4-0.6 4 1.4c9.2 3.2 18.4 5.6 28 7.4 37.4 8 76.6 3.4 111.2-13.2 35-19.4 56-33.8 73.2-28h0.4c16.8 5.4 30-11 18-28-20.8-26.8-54.8-40-88.4-34-35 5-67 30-112.8 5.8-3-1.6-5.8-3.2-8.6-5-3.2-1.8 9.8 2.6 6.8 0.6-10-5-19.6-10.8-28.8-17.2-0.6-0.6 7 2.2 6.2 1.6-11.8-8-22-18.4-30-30.4-8.2-14.8-9-32.8-2-48.2 4.2-7.6 10.8-13.8 18.6-17.4 6 3 9.6 5.2 9.6 5.2s-2.6-5-4.2-7.6c0.6-0.2 1 0 1.6-0.4 5.2 2.2 16.6 8 22.8 11.6 4.2 2.2 7.6 5.4 10.4 9.4 0 0 2-1 0.6-5.4-2.2-5.4-5.8-10-10.8-13.2h0.4c4.6 2.4 9 5.2 13.2 8.2 3.8-8.8 5.6-18.4 5.2-28 0.4-5.2-0.4-10.6-2.2-15.6-1.6-3.2 1-4.4 3.8-1-0.4-2.6-1.4-5-2.4-7.4v-0.2s1.6-2.2 2.4-3c2-2 4.2-3.8 6.8-5.4 14.4-9 29.6-16.8 45.4-23.2 12.8-5.6 23.4-9.8 25.6-11.2 3.2-2 6.2-4.4 9-7 10.6-9 18-21.6 20.4-35.4 0.2-1.8 0.4-3.6 0.6-5.6v-3c-1.8-7-13.8-12.2-76.8-18.2-22.2-3.6-40-20.2-45-42.2v0.2c-0.8 2.2-1.8 4.6-2.6 7 0.8-2.4 1.6-4.6 2.6-7v-0.4c12-31.4 33.6-58.2 61.6-76.6 1.6-1.4-6.4 0.4-4.8-1 5.4-2.6 10.8-5 16.4-7 2.8-1.2-12-6.8-25.2-5.4-8 0.4-16 2.4-23.4 5.6 3.2-2.6 12.4-6.2 10.2-6.2-16.8 3.2-33 9.4-47.8 18 0-1.6 0.2-3 1-4.4-11.8 5-22 13-30 23 0.2-1.8 0.4-3.6 0.4-5.4-5.4 4-10.4 8.6-14.6 13.8l-0.2 0.2c-34.8-13.4-72.6-16.6-109.2-9.4l-0.4-0.2h0.4c-7.6-6.2-14.2-13.4-19.4-21.8l-0.4 0.2-0.8-0.4c-2.4-3.6-4.8-7.6-7.4-12-1.8-3.2-3.6-6.8-5.4-10.4 0-0.2-0.2-0.4-0.4-0.4-0.8 0-1.2 3.4-1.8 2.6v-0.2c-6.4-16.6-9.4-34.4-8.8-52.4l-0.4 0.2c-10.2 7-18 17.2-22.2 29-1.8 4.2-3.2 6.6-4.4 9v-1c0.2-2.2 1.2-6.6 1-6.2-0.2 0.4-0.4 0.6-0.6 0.8-3 3.4-5.8 7.4-7.8 11.6-1.8 3.8-3.4 7.8-4.6 11.8-0.2 0.6 0-0.6 0-2s0.2-4 0-3.4l-0.6 1.4c-13.4 29.8-21.8 61.6-24.8 94.2-0.8 5.6-1.2 11.2-1 16.6v0.4c-9.6 10.4-18 22-25.4 34.2-24.2 40.8-42.2 85-53.6 131.2 8-17.6 17.6-34.4 28.6-50.2C43 457 32 514.8 32 573.2c3.6-17.2 8.4-34 14-50.6-3.4 69 9.8 137.8 38.8 200.6 38.8 87 103.2 160 184.6 209.4 33.2 22.4 69.4 39.8 107.6 51.6 5 1.8 10.2 3.6 15.4 5.4-1.6-0.6-3.2-1.4-4.8-2 45.2 13.6 92.4 20.6 139.6 20.6 167.4 0 222.6-63.8 227.6-70 8.2-7.4 15-16.4 19.8-26.6 3.2-1.4 6.4-2.8 9.8-4.2l2-1 3.8-1.8c25.2-11.8 49-26.8 70.6-44.2 32.6-23.4 55.8-57.4 65.8-96.2 6-14.2 6.2-30 0.8-44.4 1.8-2.8 3.4-5.6 5.4-8.6 36-57.8 56.4-123.8 59.2-191.8v-5.6c0-14.6-1.2-29-3.8-43.2z" fill="#8a8a8a" p-id="3765"></path></svg>