<?xml version="1.0" encoding="UTF-8"?>
<svg width="250px" height="138px" viewBox="0 0 250 138" version="1.1" xmlns="http://www.w3.org/2000/svg" xmlns:xlink="http://www.w3.org/1999/xlink">
    <!-- Generator: Sketch 64 (93537) - https://sketch.com -->
    <title>女_摊手</title>
    <desc>Created with Sketch.</desc>
    <defs>
        <polygon id="path-1" points="0.312143393 0.269006707 44.1513616 0.269006707 44.1513616 52.3252883 0.312143393 52.3252883"></polygon>
        <polygon id="path-3" points="0 0.0100933746 23.8371011 0.0100933746 23.8371011 19.3098192 0 19.3098192"></polygon>
        <polygon id="path-5" points="0.0207262155 0.0271379549 4.9552535 0.0271379549 4.9552535 4.91222148 0.0207262155 4.91222148"></polygon>
        <polygon id="path-7" points="0.012208541 0.0417013293 5.39670575 0.0417013293 5.39670575 5.31252629 0.012208541 5.31252629"></polygon>
        <polygon id="path-9" points="0 0.180882567 6.67960971 0.180882567 6.67960971 14.1234999 0 14.1234999"></polygon>
        <polygon id="path-11" points="0.0145056591 0.180882567 6.69395115 0.180882567 6.69395115 14.1234999 0.0145056591 14.1234999"></polygon>
    </defs>
    <g id="1.4-人员-ROI-报表" stroke="none" stroke-width="1" fill="none" fill-rule="evenodd">
        <g id="ROI-数据---收起" transform="translate(-723.000000, -537.000000)">
            <rect fill="#F1F2F5" x="0" y="0" width="1440" height="1024"></rect>
            <rect id="矩形备份" fill="#FFFFFF" x="280" y="192" width="1136" height="808"></rect>
            <g id="加载失败图备份" transform="translate(723.000000, 537.000000)">
                <g id="女_摊手">
                    <g transform="translate(53.000000, 0.000000)">
                        <g>
                            <path d="M48.4410507,101.010706 C48.3062525,93.7469785 50.3035674,69.120836 50.3035674,69.120836 C50.3035674,69.120836 53.597904,51.5670548 48.8273626,50.124151 C48.8273626,50.124151 36.3738714,50.4691575 37.4188315,69.0273398 C37.4188315,69.0273398 37.7306208,87.6773779 36.8873101,99.5185939 C36.8873101,99.5185939 36.5207247,105.720511 42.1838933,106.13933 C48.2174829,106.585488 48.4410507,101.010706 48.4410507,101.010706" id="Fill-1" fill="#FFC6A0"></path>
                            <path d="M95.8283739,100.709933 C94.2590159,93.615701 86.5519559,70.1361176 86.5519559,70.1361176 C86.5519559,70.1361176 79.2405231,53.835514 83.5409146,51.3209574 C83.5409146,51.3209574 95.730289,48.7539117 99.0591472,67.0419937 C99.0591472,67.0419937 103.121176,85.249155 106.712507,96.5660266 C106.712507,96.5660266 108.521324,102.511512 103.112957,104.238185 C97.3506073,106.078038 95.8283739,100.709933 95.8283739,100.709933" id="Fill-3" fill="#FFC6A0"></path>
                            <g id="编组" transform="translate(46.028656, 0.277755)">
                                <mask id="mask-2" fill="white">
                                    <use xlink:href="#path-1"></use>
                                </mask>
                                <g id="Clip-6"></g>
                                <path d="M12.8948184,52.124533 C7.40699707,52.4782877 -3.71001926,50.1764214 1.80903577,35.792764 C5.74448585,25.5344228 1.85451647,0.473058136 19.5191091,1.88917068 C22.1000016,-0.943601169 30.2733758,-0.299516004 34.3929405,5.72142273 C39.5371908,13.2393947 38.7799098,21.5988328 43.1350974,37.4286747 C47.2113732,50.1550977 38.0160533,52.2568493 33.3698988,52.2568493 C25.1203582,52.2568493 17.4905605,52.4782877 12.8948184,52.124533" id="Fill-5" fill="#2B0849" mask="url(#mask-2)"></path>
                            </g>
                            <path d="M82.4531041,49.897573 C80.9692279,49.4322788 79.5319283,48.9467545 77.9757213,48.2764248 C76.9515837,47.835735 75.777853,46.975679 75.7038784,45.4152214 L75.2567429,33.8200481 L61.4437624,33.8419186 L61.1785497,44.9318841 C61.1226577,46.0456375 60.6470283,47.071909 59.6141233,47.496196 C57.9784622,48.168166 55.9564891,48.4694317 54.3624729,48.945661 C54.3624729,48.945661 61.6870567,53.6423432 70.6253834,53.6423432 C79.5642579,53.6423432 82.4531041,49.897573 82.4531041,49.897573" id="Fill-7" fill="#FFB48A"></path>
                            <path d="M56.9001861,24.076155 C56.9001861,24.076155 54.7324556,21.9656552 53.2074824,23.5545444 C51.8885422,24.9280095 53.1592619,31.7193354 57.934187,31.6548175 L56.9001861,24.076155 Z" id="Fill-9" fill="#FFB69C"></path>
                            <path d="M79.2140566,24.076155 C79.2140566,24.076155 81.3817871,21.9656552 82.9067603,23.5545444 C84.2257005,24.9280095 82.9549808,31.7193354 78.1800557,31.6548175 L79.2140566,24.076155 Z" id="Fill-11" fill="#FFB69C"></path>
                            <path d="M80.8552521,23.4950567 C81.4295144,12.8293782 77.5389971,5.46121889 68.0762726,5.46121889 C58.2321677,5.46121889 55.077013,13.3930894 55.6748375,23.4950567 C55.6748375,23.4950567 55.724154,30.507821 60.5308607,35.8781135 C62.3287181,37.8869156 65.1918101,40.4096736 68.3195669,40.4916878 C71.4878727,40.5737021 74.6189172,38.3319795 76.8085661,35.4297689 C79.1620552,32.3099473 80.5971629,28.290156 80.8552521,23.4950567" id="Fill-13" fill="#FFC6A0"></path>
                            <path d="M61.036628,20.5156434 C60.5018188,20.5156434 59.9302964,20.4992406 59.3275402,20.4609673 C59.108904,20.4467515 58.9434201,20.2586655 58.9571191,20.0399608 C58.9702701,19.821803 59.1521929,19.6555874 59.3790484,19.67035 C62.811471,19.8906949 65.262497,19.3417463 65.2866072,19.3362787 C65.4997637,19.2870701 65.7129203,19.4204799 65.7622367,19.633717 C65.8110051,19.846954 65.6778508,20.0590975 65.4641463,20.108306 C65.3781166,20.1279895 63.6547818,20.5156434 61.036628,20.5156434" id="Fill-15" fill="#2B0849"></path>
                            <path d="M69.4165832,29.3643238 L67.4735163,29.3643238 C67.3091283,29.3643238 67.175974,29.2314607 67.175974,29.0674323 C67.175974,28.9034038 67.3091283,28.7705407 67.4735163,28.7705407 L69.1152051,28.7705407 L69.0379427,22.6643072 C69.0373947,22.621113 69.0461621,22.5779188 69.0636968,22.538552 L70.2703052,19.8648878 C70.3382522,19.7150751 70.5146954,19.6494637 70.6631926,19.7161686 C70.8133337,19.7834203 70.8801848,19.9589308 70.8127857,20.1087434 L69.6335754,22.7222639 L69.7141256,29.0636049 C69.7152215,29.1428854 69.6839877,29.219432 69.6286438,29.2757484 C69.5722039,29.3326116 69.4965854,29.3643238 69.4165832,29.3643238" id="Fill-17" fill="#DB836E"></path>
                            <path d="M71.5699023,31.5018883 C68.6646174,31.7763626 65.2897306,31.5877299 65.2897306,31.5877299 C65.2897306,31.5877299 65.9834482,33.7829777 68.5528335,33.7829777 C71.1227668,33.7829777 71.5699023,31.5018883 71.5699023,31.5018883" id="Fill-19" fill="#FFFFFF"></path>
                            <path d="M65.9377483,32.0113607 C66.2988541,32.579446 67.0725739,33.3870129 68.5526143,33.3870129 C70.0370385,33.3870129 70.7077418,32.529144 70.9915851,31.9473896 C69.0315316,32.0884541 66.9690094,32.0469003 65.9377483,32.0113607 M68.5526143,34.1787237 C65.7245918,34.1787237 64.9190903,31.7314188 64.9114189,31.7068145 C64.8725137,31.5826997 64.896624,31.4476495 64.9760782,31.3448584 C65.0560804,31.2420672 65.1930704,31.1857507 65.3114298,31.1923119 C65.3448554,31.1939522 68.6917962,31.3760238 71.5324219,31.1075638 C71.6568088,31.0949883 71.7795519,31.1436501 71.8639378,31.2360528 C71.9483236,31.3284555 71.9833931,31.4553042 71.9592828,31.5777788 C71.7828397,32.4777484 70.8436359,34.1787237 68.5526143,34.1787237" id="Fill-21" fill="#C44343"></path>
                            <path d="M74.896733,24.9983778 C74.677549,24.9983778 74.4994619,24.821227 74.4994619,24.6025224 C74.4994619,23.8693151 74.085204,23.2498342 73.5942317,23.2498342 C73.1032593,23.2498342 72.6884535,23.8693151 72.6884535,24.6025224 C72.6884535,24.821227 72.5109144,24.9983778 72.2911823,24.9983778 C72.0719983,24.9983778 71.8944592,24.821227 71.8944592,24.6025224 C71.8944592,23.419877 72.6566718,22.4581234 73.5942317,22.4581234 C74.5312436,22.4581234 75.2940042,23.419877 75.2940042,24.6025224 C75.2940042,24.821227 75.1159171,24.9983778 74.896733,24.9983778" id="Fill-23" fill="#2B0849"></path>
                            <path d="M63.8390608,24.9983778 C63.6198767,24.9983778 63.4417897,24.821227 63.4417897,24.6025224 C63.4417897,23.8693151 63.0275318,23.2498342 62.5365594,23.2498342 C62.0461351,23.2498342 61.6313292,23.8693151 61.6313292,24.6025224 C61.6313292,24.821227 61.4532421,24.9983778 61.234058,24.9983778 C61.014874,24.9983778 60.8367869,24.821227 60.8367869,24.6025224 C60.8367869,23.419877 61.5995475,22.4581234 62.5365594,22.4581234 C63.4735713,22.4581234 64.2363319,23.419877 64.2363319,24.6025224 C64.2363319,24.821227 64.0582449,24.9983778 63.8390608,24.9983778" id="Fill-25" fill="#2B0849"></path>
                            <path d="M68.8391975,40.8087002 C66.4303645,40.8087002 64.0330387,39.4986594 62.5924514,38.2728199 C62.5091614,38.2017409 62.4992981,38.0770793 62.570533,37.9939715 C62.6412198,37.9108637 62.7661547,37.9004753 62.8499926,37.9715543 C64.2368799,39.1514658 66.5383127,40.4128448 68.8391975,40.4128448 C70.7291122,40.4128448 72.493544,39.068358 74.0502989,37.8818854 C74.1363287,37.816274 74.2618116,37.8321301 74.3286627,37.9196119 C74.3949659,38.006547 74.3779791,38.1306619 74.2908535,38.1968201 C72.6842342,39.4210193 70.8628145,40.8087002 68.8391975,40.8087002" id="Fill-27" fill="#DB836E"></path>
                            <path d="M57.8527053,14.6267476 C58.0653139,14.5081004 58.7995805,14.540906 58.7995805,14.540906 L57.4231045,16.1718959 L58.0247648,16.2577375 C58.0247648,16.2577375 55.8690894,18.0697054 56.2564973,23.7352491 C56.3343076,24.8779809 56.3901996,26.0442233 55.7879913,25.1858076 C50.2755118,10.827848 58.50423,2.72320082 69.07493,2.72484086 C81.463214,2.72702816 85.1055054,16.6913194 84.2167139,28.478406 C74.0652034,31.9120688 75.3737324,17.8958352 74.0980811,14.1116982 C72.2284409,8.56261471 66.3701985,12.2231836 66.3701985,12.2231836 L63.8753358,11.4506095 L63.9608175,12.3948668 C63.9608175,12.3948668 61.3371842,11.9869826 60.1755086,12.3090252 C58.6269731,13.9826625 57.8527053,14.6267476 57.8527053,14.6267476" id="Fill-29" fill="#2B0849"></path>
                            <path d="M76.5304215,20.4617327 C76.510695,20.4617327 76.4904205,20.4600925 76.4706939,20.4573586 C73.6311642,20.0265105 70.7510854,20.1167262 70.7225915,20.1183665 C70.5055993,20.1243808 70.3198408,19.9537912 70.3127173,19.7356333 C70.3055938,19.5169287 70.4771053,19.3337636 70.6962894,19.3266557 C70.8168406,19.3222816 73.675549,19.2320659 76.5890533,19.674396 C76.8060455,19.7072017 76.9550907,19.9089568 76.9222131,20.1254744 C76.8920753,20.321215 76.7233035,20.4617327 76.5304215,20.4617327" id="Fill-31" fill="#2B0849"></path>
                            <path d="M69.3352111,35.6408736 L67.4354331,35.6408736 C67.2710451,35.6408736 67.1378907,35.5080105 67.1378907,35.3439821 C67.1378907,35.1799536 67.2710451,35.0470905 67.4354331,35.0470905 L69.3352111,35.0470905 C69.4995991,35.0470905 69.6327535,35.1799536 69.6327535,35.3439821 C69.6327535,35.5080105 69.4995991,35.6408736 69.3352111,35.6408736" id="Fill-33" fill="#DB836E"></path>
                            <path d="M95.9787342,122.926278 C94.9913099,119.319292 89.2897842,108.623541 86.0535313,103.347839 C84.6989737,101.141109 84.2775923,98.492049 84.8776087,95.9747586 L87.8683754,83.4402489 C87.8683754,83.4402489 90.6152999,77.4389936 90.4662547,72.2360102 C90.3172095,67.0330268 88.8273058,63.0197967 88.8273058,63.0197967 L89.5484214,52.9074409 C89.5412979,52.2321903 89.0645725,51.6559036 88.3998968,51.5268679 C87.1247934,51.2797316 83.0298869,49.9494606 80.5454354,49.1686851 C71.1736723,46.2221868 60.1426857,47.9253492 56.2625796,48.6109882 C52.9802981,49.1911023 50.2870738,49.7012309 48.7489495,49.9981224 C47.9407082,50.1539495 47.4102828,50.5700351 47.4102828,51.6969107 L48.9018304,66.2899778 C48.9314203,66.9521061 46.6672488,72.8308868 48.8070333,76.6877432 L54.6263705,96.1141828 C55.253237,98.2066395 55.1639195,100.451643 54.3628017,102.483955 C51.0766844,110.82371 47.7828957,118.267323 46.6420426,123.637615 C42.9548185,140.995656 57.5272718,148.344131 72.7353589,148.344131 C96.008872,148.344131 99.4807478,135.722687 95.9787342,122.926278" id="Fill-35" fill="#FFB48A"></path>
                            <path d="M70.2952373,145.223872 C70.2952373,145.223872 71.1275889,156.290874 70.2278382,199.581817 C69.7741272,221.417288 70.6525074,297.963366 70.6525074,297.963366 L61.1547134,298.186444 C61.1547134,298.186444 55.7441545,262.389962 51.1790982,239.193055 C47.6058498,221.032368 53.6662895,206.445315 52.30954,199.559947 C41.4347221,144.379126 45.5455194,128.170378 46.5992469,125.237549 C46.7187022,124.906211 47.0085732,124.669463 47.3587197,124.623536 C50.3889396,124.228774 65.2655108,123.451279 70.2952373,145.223872" id="Fill-37" fill="#FFC6A0"></path>
                            <path d="M93.6964252,243.725052 C88.5423117,221.225266 89.1302729,220.744115 85.908815,205.958588 C82.687357,191.173061 74.7386465,147.3195 74.7386465,147.3195 C79.8889243,116.682807 96.2395084,123.594968 96.2395084,123.594968 C96.2395084,123.594968 103.848484,141.725582 103.730672,196.345973 C103.701082,209.907301 110.179068,222.840399 111.471706,238.428573 C112.692561,253.13974 114.004926,279.90208 114.749604,296.10536 C108.593819,298.966017 105.736754,297.071488 105.736754,297.071488 C105.736754,297.071488 97.9184585,262.156386 93.6964252,243.725052" id="Fill-39" fill="#FFC6A0"></path>
                            <path d="M80.2965519,36.4086909 C80.0773679,36.4086909 79.8992808,36.2315402 79.8992808,36.0128355 L79.8992808,30.3270616 C79.8992808,30.108357 80.0773679,29.9312062 80.2965519,29.9312062 C80.515736,29.9312062 80.6938231,30.108357 80.6938231,30.3270616 L80.6938231,36.0128355 C80.6938231,36.2315402 80.515736,36.4086909 80.2965519,36.4086909" id="Fill-49" fill="#FAD024"></path>
                            <path d="M56.1622481,36.4086909 C55.943064,36.4086909 55.764977,36.2315402 55.764977,36.0128355 L55.764977,30.3270616 C55.764977,30.108357 55.943064,29.9312062 56.1622481,29.9312062 C56.3814322,29.9312062 56.5595193,30.108357 56.5595193,30.3270616 L56.5595193,36.0128355 C56.5595193,36.2315402 56.3814322,36.4086909 56.1622481,36.4086909" id="Fill-51" fill="#FAD024"></path>
                            <path d="M50.9876409,83.5830631 C50.9076387,83.5830631 50.8314722,83.5338545 50.8018824,83.4540273 C49.3185541,79.4883654 48.5815477,76.8486004 48.2582512,74.342792 C47.6894685,69.948469 48.6127814,64.6886224 48.700455,64.2074722 L47.8122116,58.9131797 C47.7941289,58.8054676 47.8675555,58.7032232 47.9755037,58.6851801 C48.0856437,58.6665902 48.1859204,58.7398562 48.2040031,58.8475683 L49.0977262,64.1763068 C49.1015619,64.1992708 49.1010139,64.2227816 49.0966303,64.2457456 C49.086219,64.3004217 48.0664651,69.7691312 48.6516866,74.2919432 C48.9711474,76.7660394 49.7015783,79.3801066 51.1733994,83.3156966 C51.2117566,83.4179411 51.1591524,83.5322142 51.0572318,83.5704875 C51.0342175,83.578689 51.0106552,83.5830631 50.9876409,83.5830631" id="Fill-53" fill="#DB836E"></path>
                            <path d="M87.7100697,83.8803373 C87.6854115,83.8803373 87.6602053,83.8754165 87.6355471,83.8661215 C87.5341745,83.8251144 87.485406,83.7097477 87.5259551,83.6080501 C89.3692932,79.0469648 90.0383526,76.8670263 90.1189027,73.7176795 C90.2093162,70.2205923 88.3577587,63.5856403 88.3385801,63.5189354 C88.3320045,63.4937843 88.3298127,63.4680865 88.3331005,63.441842 L88.9287332,58.5362969 C88.9418842,58.4280381 89.0246262,58.3482109 89.1495611,58.3635202 C89.2580573,58.3766425 89.3358676,58.4756064 89.3221686,58.5838652 L88.7314675,63.4505902 C88.8991433,64.0525747 90.6043954,70.2725346 90.5156259,73.7275212 C90.4334319,76.9375585 89.757249,79.1459286 87.8941843,83.7562225 C87.8629506,83.8333158 87.788976,83.8803373 87.7100697,83.8803373" id="Fill-55" fill="#DB836E"></path>
                            <path d="M49.6091922,114.565583 L92.3846085,114.565583 C92.3846085,114.565583 94.8246752,119.471128 96.314031,123.707436 C89.982899,124.153594 76.5370519,129.615742 74.7764558,148.235162 L70.5412715,148.235162 C70.5412715,148.235162 69.1379454,125.086916 46.5181488,124.375579 C47.3746106,119.841832 49.6091922,114.565583 49.6091922,114.565583" id="Fill-65" fill="#2B0849"></path>
                            <path d="M71.7330849,78.666364 L65.6994952,78.666364 C65.2079749,78.666364 64.8052242,78.265041 64.8052242,77.7745959 C64.8052242,77.283604 65.2079749,76.8822809 65.6994952,76.8822809 L71.7330849,76.8822809 C72.2246052,76.8822809 72.6268079,77.283604 72.6268079,77.7745959 C72.6268079,78.265041 72.2246052,78.666364 71.7330849,78.666364" id="Fill-67" fill="#2B0849"></path>
                            <path d="M48.3832409,68.4443279 L67.1492335,76.9552189 C67.3711574,77.0563698 67.4511596,77.3292039 67.3180052,77.533146 C66.0702999,79.4446245 59.5545053,87.6968973 51.3975699,83.2375097 C46.5256558,80.5736872 47.5448618,71.0392584 47.8243215,68.7521547 C47.8571991,68.4864285 48.1393986,68.3333353 48.3832409,68.4443279" id="Fill-69" fill="#2B0849"></path>
                            <path d="M89.4160342,69.1085885 L70.3919523,77.2170631 C70.3919523,77.2170631 76.6491097,89.1463077 86.817059,83.2374551 C91.6221219,80.4445968 90.3881156,71.5044979 89.9700219,69.3879837 C89.9201576,69.1370201 89.6494652,69.0025168 89.4160342,69.1085885" id="Fill-71" fill="#2B0849"></path>
                            <path d="M56.6604535,47.7191654 C56.6604535,47.7191654 59.048464,50.8105555 63.4507762,52.5131711 C68.3758424,54.4186353 76.1881108,53.628018 79.2051796,48.4622144 C84.8661563,50.5437358 89.2377827,51.5098636 89.2377827,51.5098636 L89.9315003,59.9830281 C89.9315003,59.9830281 92.317867,67.757978 91.4953787,75.145274 C90.6011077,83.1728278 87.3730742,99.6959634 87.3730742,99.6959634 C87.3730742,99.6959634 89.8158807,104.255408 86.2557834,105.270198 C64.2321674,106.43644 53.8296912,103.263583 53.8296912,103.263583 C53.8296912,103.263583 50.652618,100.315991 53.0362448,97.6401398 C49.9309544,85.6250536 48.1429603,83.6184385 47.4722571,76.9293571 C46.8470345,70.6886202 48.6640705,58.2733046 48.6640705,58.2733046 L47.0486838,50.0489166 L56.6604535,47.7191654 Z" id="Fill-73" fill="#E5E3EA"></path>
                            <path d="M47.0486838,50.0489166 C47.0486838,50.0489166 37.0440267,50.8406274 35.5541229,65.7059818 C35.5239851,66.8634761 35.5639862,66.6589872 35.5541229,67.4895181 C35.5442597,68.4080776 34.9530106,70.3299446 34.9584902,70.9089651 C34.9727372,72.3628042 35.4056257,73.881708 35.4056257,73.881708 L33.5085875,95.2644606 C33.4433803,95.999855 33.8921597,96.6827602 34.5968365,96.9069325 C36.2067435,97.4197948 39.0731233,98.4646563 40.9181052,99.8955314 C42.8715833,101.412248 46.8826519,101.073803 48.9150362,100.778551 C49.6427274,100.673026 50.1967151,100.083071 50.2608265,99.3525971 L51.9419683,80.2738978 C51.9419683,80.2738978 54.9678045,53.7165934 47.0486838,50.0489166" id="Fill-75" fill="#E5E3EA"></path>
                            <path d="M84.5679016,78.7873077 L89.9433911,102.314459 C90.0765454,102.897307 90.5614902,103.336904 91.1576709,103.395954 C92.7144258,103.549594 95.848758,103.518975 98.8702105,101.45659 C101.765632,99.4800472 105.21559,98.159618 107.116463,97.5199069 C107.919225,97.2503534 108.363073,96.4028729 108.136765,95.5887449 C107.072079,91.7646943 104.131724,78.7572358 102.222083,69.3480155 C102.966761,66.6721642 101.040681,66.7164519 100.806702,65.1860662 C98.8702105,52.5504056 88.6534928,51.5099183 89.2376183,51.5099183 C89.2376183,51.5099183 81.4395969,60.0574423 84.5679016,78.7873077" id="Fill-77" fill="#E5E3EA"></path>
                            <path d="M79.0219417,53.0249946 C78.9315283,53.0249946 78.8422108,52.9839875 78.783579,52.9058006 C78.6854942,52.7745778 78.7123442,52.5886789 78.8438547,52.4902618 C80.023613,51.6088821 80.6477396,50.8795021 80.6537672,50.8718475 C80.7600715,50.7471858 80.9474738,50.7318765 81.0729567,50.8368547 C81.1984396,50.9429265 81.2143305,51.1299189 81.1085741,51.2551273 C81.0817241,51.2868395 80.4400627,52.0397302 79.2000288,52.9659444 C79.1468767,53.005858 79.0838612,53.0249946 79.0219417,53.0249946" id="Fill-79" fill="#C2C0CC"></path>
                            <path d="M68.9087337,56.3402836 C68.3520061,56.3402836 67.7903469,56.3151326 67.2232081,56.2653773 C65.1858921,56.0849459 63.0170657,55.4594507 60.7764565,54.4052943 C60.6279593,54.3358556 60.5638479,54.1587048 60.6339868,54.0105324 C60.7046737,53.8618133 60.8844047,53.7989357 61.0301621,53.8683744 C63.2072079,54.8924589 65.3086352,55.4993643 67.2758123,55.6737812 C70.3421975,55.9444282 73.2513182,55.4572636 75.9226241,54.2254097 C76.0694774,54.1565178 76.2481125,54.2215824 76.3177034,54.3703016 C76.3861984,54.5190207 76.3209912,54.6956247 76.171946,54.7645167 C73.900103,55.8121119 71.4633241,56.3402836 68.9087337,56.3402836" id="Fill-81" fill="#C2C0CC"></path>
                            <path d="M58.0774238,52.8921863 C58.0237237,52.8921863 57.9694756,52.8774237 57.9207072,52.8473518 C56.1990163,51.7773393 55.1441929,50.8811971 55.0998081,50.8434705 C54.9754211,50.736852 54.9611742,50.5493128 55.0674785,50.4246512 C55.1743307,50.3005363 55.362829,50.2857737 55.486668,50.3918455 C55.4976272,50.4011404 56.5551904,51.2983762 58.2352363,52.3432376 C58.3749662,52.4301727 58.4171591,52.6133378 58.3305814,52.7522153 C58.2741415,52.8424309 58.1771525,52.8921863 58.0774238,52.8921863" id="Fill-83" fill="#C2C0CC"></path>
                            <path d="M86.9143767,100.750229 C86.8880746,100.750229 86.8612246,100.746949 86.8343745,100.739294 C86.6760141,100.695553 86.5834088,100.532071 86.6277936,100.374057 C86.6699865,100.220964 90.8914718,85.0286461 91.8805399,81.74917 C93.9140202,75.0097865 90.7265358,66.1938025 90.6942061,66.1052271 C90.682151,66.0729681 90.6761234,66.0379754 90.6761234,66.0029827 L90.6761234,60.5031077 C90.6761234,60.3390792 90.8092778,60.2062162 90.9736658,60.2062162 C91.1380539,60.2062162 91.2712082,60.3390792 91.2712082,60.5031077 L91.2712082,65.9510403 C91.5605312,66.7542331 94.4828029,75.1858437 92.4509665,81.9203064 C91.4635422,85.1937681 87.2437008,100.379525 87.2009599,100.532618 C87.1647945,100.663841 87.0447913,100.750229 86.9143767,100.750229" id="Fill-85" fill="#C2C0CC"></path>
                            <path d="M78.0127087,105.693009 C77.9721596,105.693009 77.9305146,105.684807 77.8905135,105.666764 C77.7409204,105.600059 77.6740693,105.424002 77.7414684,105.274189 L82.9558575,93.6795628 C83.0227087,93.5297501 83.1991519,93.4630452 83.348745,93.5302968 C83.4988861,93.5975485 83.5657372,93.773059 83.4983381,93.9228717 L78.2839489,105.517498 C78.2346325,105.627944 78.1261364,105.693009 78.0127087,105.693009" id="Fill-87" fill="#C2C0CC"></path>
                            <path d="M75.1904945,106.027517 C63.0471487,106.027517 53.9899147,103.485623 53.8715553,103.451723 C53.8337461,103.441335 53.7992246,103.423292 53.7685388,103.399234 C53.7340173,103.371896 50.3229652,100.623872 52.8019371,97.4575761 C52.9022138,97.3279936 53.0907121,97.3055763 53.2189348,97.4061805 C53.3488013,97.5073314 53.3718157,97.6937771 53.270443,97.8228128 C51.27532,100.371815 53.7131949,102.577452 54.0934792,102.89676 C55.1521383,103.187638 70.2363864,107.186652 87.3223331,104.52447 C87.6445337,104.145017 88.974981,102.319927 87.1349307,99.8742623 C87.0362979,99.7430396 87.0626,99.5571406 87.1941104,99.4587235 C87.3256209,99.3603064 87.5113794,99.386551 87.6111081,99.5177738 C89.95309,102.630488 87.709193,104.98539 87.6861787,105.008901 C87.6412459,105.054829 87.5826142,105.0849 87.5195988,105.094742 C83.2230429,105.770539 79.050874,106.027517 75.1904945,106.027517" id="Fill-89" fill="#C2C0CC"></path>
                            <path d="M64.3072928,104.652357 C64.2157834,104.652357 64.12537,104.610257 64.0672862,104.530976 L58.1821938,96.5034224 C58.0857528,96.3711061 58.1142467,96.1852071 58.2468531,96.0884303 C58.3794594,95.9916535 58.5652179,96.0200851 58.6627549,96.1529482 L64.5472993,104.179955 C64.6442883,104.312272 64.6152464,104.498171 64.48264,104.594947 C64.4300359,104.633767 64.3681164,104.652357 64.3072928,104.652357" id="Fill-91" fill="#C2C0CC"></path>
                            <path d="M47.0791504,98.092913 C45.1218366,98.092913 42.2044966,97.8364819 40.9896688,96.4214628 C39.2657861,94.414301 34.8815566,92.4568945 34.8371718,92.4372111 C34.6870307,92.3705061 34.6196316,92.1955424 34.6864828,92.045183 C34.7533339,91.8953703 34.9286812,91.8281186 35.0793702,91.8948235 C35.2640328,91.976291 39.6307276,93.9271364 41.441188,96.0349024 C43.1086309,97.9759061 48.87372,97.4253171 48.9328997,97.4193028 C49.0846847,97.405087 49.2424973,97.5215472 49.2583881,97.6850289 C49.2748269,97.8485106 49.1553716,97.9939492 48.9915315,98.010352 C48.9044058,98.0191002 48.1295901,98.092913 47.0791504,98.092913" id="Fill-93" fill="#C2C0CC"></path>
                            <path d="M93.0537775,100.475263 C91.5200369,100.475263 90.3649368,100.059177 90.2745234,100.025278 C90.1205466,99.9684147 90.0421883,99.7978251 90.0991762,99.6441851 C90.156712,99.4899983 90.3309633,99.4123581 90.4816524,99.4686746 C90.5211055,99.4834371 94.4423086,100.885881 97.3317027,98.3357846 C100.598641,95.4521639 103.291318,94.5319641 104.900129,93.9824687 C105.226713,93.8703826 105.514392,93.7725122 105.760426,93.6740951 C105.913307,93.6134046 106.086463,93.6872174 106.147834,93.8397639 C106.208658,93.9917636 106.134683,94.1645403 105.98235,94.2257776 C105.727549,94.3269285 105.430006,94.4286262 105.093011,94.5439929 C103.424472,95.1142652 100.903307,95.9759615 97.726234,98.7803017 C96.2083843,100.119868 94.4697066,100.475263 93.0537775,100.475263" id="Fill-95" fill="#C2C0CC"></path>
                            <path d="M54.1764404,100.415884 C54.0515055,100.415884 53.9358859,100.337151 53.8936929,100.212489 C53.8471163,100.071971 49.1872629,86.1087736 48.3001153,82.3486941 C47.4277627,78.6476648 48.0129842,69.7113932 48.0672322,68.9240565 L46.5115733,61.8303715 C46.4759558,61.6701704 46.5778764,61.5116095 46.7384288,61.4766168 C46.8962413,61.4427175 47.0573416,61.5427749 47.0924111,61.7035228 L48.6573854,68.8387617 C48.6634129,68.8660998 48.6656048,68.8945314 48.6634129,68.922963 C48.6568374,69.0180995 48.0064087,78.5093341 48.8793092,82.2125504 C49.7604292,85.9469322 54.4120633,99.8844321 54.4591879,100.02495 C54.5106961,100.180777 54.4263102,100.348633 54.2706895,100.400575 C54.2394558,100.410964 54.2076741,100.415884 54.1764404,100.415884" id="Fill-97" fill="#C2C0CC"></path>
                            <path d="M47.0261627,69.1990776 C46.9286258,69.1990776 46.8327327,69.1515093 46.7762928,69.0640275 C43.8688161,64.6013593 43.1833179,60.2119572 43.1559199,60.0271518 C43.1312616,59.8647636 43.2435935,59.7138574 43.4057897,59.6892531 C43.5636022,59.6651956 43.7197709,59.7761882 43.7444291,59.9385764 C43.7504567,59.9828641 44.4419824,64.3908561 47.2749366,68.7403446 C47.3648021,68.8775818 47.3258969,69.0618404 47.1878109,69.1509626 C47.1379466,69.1837683 47.0815067,69.1990776 47.0261627,69.1990776" id="Fill-99" fill="#C2C0CC"></path>
                            <path d="M91.7186725,67.6381826 C91.6825071,67.6381826 91.6457938,67.6316214 91.6101764,67.6179524 C91.4567475,67.5578086 91.381677,67.3855787 91.4414046,67.2330322 C93.404746,62.226883 93.0644627,56.1222898 93.060627,56.0615992 C93.0507637,55.8975707 93.1756986,55.757053 93.3400867,55.7472113 C93.4863921,55.7411969 93.6453005,55.8614845 93.6546158,56.025513 C93.6584516,56.0878438 94.0080502,62.3192857 91.9959404,67.4495498 C91.9499117,67.5665568 91.8375799,67.6381826 91.7186725,67.6381826" id="Fill-101" fill="#C2C0CC"></path>
                            <path d="M74.4375972,65.5569892 C74.3285531,65.5569892 74.2233448,65.4968454 74.1718365,65.3929607 C74.0978619,65.2458819 74.1575895,65.0676376 74.3044429,64.9943715 C77.1823298,63.5585756 83.3671564,54.6272248 83.4290759,54.5370092 C83.5227771,54.4019591 83.7079877,54.3680598 83.8427859,54.4610093 C83.9781321,54.5539588 84.0126535,54.739311 83.9195003,54.8743611 C83.661959,55.2472525 77.5839846,64.0222294 74.5707515,65.5258238 C74.5280106,65.5471475 74.4825299,65.5569892 74.4375972,65.5569892" id="Fill-103" fill="#C2C0CC"></path>
                            <path d="M68.5095447,53.8802391 C68.4037884,53.8802391 68.2963882,53.8791456 68.18844,53.8769586 C60.3756236,53.7271459 56.4511327,47.9413146 56.4122276,47.8828111 C56.3218141,47.7461207 56.3590754,47.5624089 56.4960655,47.4716464 C56.6330555,47.380884 56.8182661,47.4191573 56.9086795,47.555301 C56.9453928,47.6110706 60.7093314,53.1393772 68.2004951,53.2831755 C75.6828915,53.426427 78.9196924,48.3574002 78.952022,48.3060046 C79.0391477,48.1665804 79.2221664,48.1233863 79.3618962,48.2103213 C79.5016261,48.2967097 79.544367,48.4793281 79.4577893,48.6187523 C79.4232678,48.6745219 78.5903683,49.9998721 76.7804558,51.3170208 C75.1595895,52.4963855 72.4225284,53.8802391 68.5095447,53.8802391" id="Fill-105" fill="#C2C0CC"></path>
                            <path d="M71.3836507,164.336252 C71.3836507,153.930832 71.5069417,148.15867 71.5069417,148.15867 L74.5119554,148.15867 L75.6292462,164.559331 C92.6127243,167.457714 104.903471,161.066071 104.903471,161.066071 C101.625574,138.768039 99.6830547,133.24356 98.1997264,127.322132 C95.9645968,118.40281 89.3096203,109.086539 89.3096203,109.086539 L87.6969735,105.0241 C69.3720888,107.325967 53.8478287,102.746838 53.8478287,102.746838 L52.0603825,108.321073 C52.0603825,108.321073 46.3774874,117.160021 44.7911427,124.423202 C40.9921347,141.815689 43.2267163,151.826347 43.2267163,162.306673 C43.2267163,162.306673 47.2492921,164.090209 55.0703279,164.536367 C62.8919116,164.981978 71.3836507,164.336252 71.3836507,164.336252" id="Fill-107" fill="#6297CC"></path>
                            <path d="M74.9587621,108.257539 C74.9587621,108.811409 74.5088868,109.260847 73.9532552,109.260847 C73.3976235,109.260847 72.9477482,108.811409 72.9477482,108.257539 C72.9477482,107.703123 73.3976235,107.254232 73.9532552,107.254232 C74.5088868,107.254232 74.9587621,107.703123 74.9587621,108.257539" id="Fill-109" fill="#FFFFFF"></path>
                            <path d="M75.9460768,111.982243 C63.4986131,111.982243 53.1120277,108.918191 52.9733938,108.876091 C52.8155813,108.829069 52.7268117,108.6634 52.7739363,108.50648 C52.8216088,108.349012 52.9870928,108.259344 53.1449053,108.307459 C53.3295679,108.363228 71.8221284,113.815535 88.9738303,110.085527 C89.129451,110.051628 89.2927431,110.151685 89.3278126,110.312433 C89.362882,110.473181 89.2615094,110.631195 89.1004091,110.666188 C84.6937133,111.624114 80.1987958,111.982243 75.9460768,111.982243" id="Fill-111" fill="#4670B2"></path>
                            <path d="M72.6604527,147.056945 C72.4999004,147.056945 72.367842,146.930097 72.3629103,146.769349 L71.2719216,111.724117 C71.2669899,111.560089 71.3957606,111.422852 71.5601486,111.417931 C71.7333041,111.418477 71.8620747,111.541499 71.8670063,111.705527 L72.9579951,146.750759 C72.9629267,146.914787 72.8336081,147.051478 72.669768,147.056945 C72.6664803,147.056945 72.6637405,147.056945 72.6604527,147.056945" id="Fill-113" fill="#4670B2"></path>
                            <path d="M71.5029964,110.569247 C71.3424441,110.569247 71.2103857,110.441852 71.205454,110.281104 L71.0859987,106.271154 C71.081067,106.107126 71.2103857,105.970435 71.3747737,105.965515 C71.3775135,105.965515 71.3808013,105.964968 71.3835411,105.964968 C71.5440934,105.964968 71.6761518,106.092363 71.6810835,106.253111 L71.8005388,110.263608 C71.8054704,110.427089 71.6761518,110.564326 71.5123117,110.569247 C71.509024,110.569247 71.5057362,110.569247 71.5029964,110.569247" id="Fill-115" fill="#4670B2"></path>
                            <path d="M72.5009963,134.408381 C72.3651022,134.408381 72.2423591,134.315432 72.2111253,134.177648 C72.1738641,134.017993 72.2741408,133.858339 72.4346931,133.821706 C72.4725024,133.812958 76.262743,132.936499 77.3071551,131.894371 C77.9614196,131.153509 77.4693513,121.071772 76.6737131,111.962177 C76.6594662,111.798695 76.7811133,111.654897 76.9444055,111.640681 C77.0983823,111.625919 77.2523591,111.746753 77.2666061,111.910782 C77.5466137,115.115351 78.8841845,131.16007 77.7274406,132.314284 C76.5630252,133.476153 72.7300436,134.363547 72.5672995,134.400726 C72.5448331,134.406194 72.5229147,134.408381 72.5009963,134.408381" id="Fill-117" fill="#4670B2"></path>
                            <path d="M50.7313599,117.619902 C49.9494207,117.619902 49.1236447,117.45314 48.2589635,117.119069 C48.1060826,117.060018 48.0293682,116.887788 48.0890959,116.734695 C48.1488235,116.582149 48.321431,116.506149 48.4743119,116.565199 C50.1362751,117.207097 51.6272748,117.175385 52.9034741,116.469516 C55.849856,114.839619 56.7802924,110.144578 56.7896077,110.097009 C56.8202935,109.935715 56.9808459,109.83183 57.1370145,109.861355 C57.2986628,109.891974 57.404967,110.047254 57.3737333,110.208549 C57.3353761,110.411944 56.3841172,115.221259 53.193345,116.987846 C52.4322283,117.409399 51.6097401,117.619902 50.7313599,117.619902" id="Fill-125" fill="#4670B2"></path>
                            <path d="M94.1973156,119.59393 C90.2229604,119.59393 88.1023544,117.369704 87.0190371,115.485017 C85.837635,113.4281 85.6217386,111.383211 85.6129713,111.29737 C85.5965325,111.133888 85.7154398,110.988449 85.878732,110.972047 C86.0376404,110.958378 86.1883295,111.074838 86.2047683,111.237773 C86.2069601,111.258003 86.4212126,113.258057 87.5450789,115.206168 C89.0322429,117.781416 91.3517584,119.058104 94.3945813,118.99796 C94.3967731,118.99796 94.398965,118.99796 94.4006088,118.99796 C94.5622571,118.99796 94.6948635,119.126996 94.6982121,119.289384 C94.701439,119.452866 94.5710245,119.588463 94.4066364,119.591743 C94.3364975,119.593383 94.2663586,119.59393 94.1973156,119.59393" id="Fill-127" fill="#4670B2"></path>
                            <path d="M94.1876715,121.865998 C92.9322947,121.865998 91.7563722,121.667524 90.6790824,121.273308 C90.5245576,121.216992 90.4456514,121.046402 90.5020913,120.892216 C90.5590791,120.738029 90.7294948,120.659842 90.8845675,120.715612 C92.1755617,121.18856 93.6260123,121.361337 95.1948223,121.228474 C95.3608543,121.214805 95.502776,121.336186 95.516475,121.499668 C95.530174,121.66315 95.4090748,121.806948 95.2452347,121.820617 C94.8868687,121.850689 94.5345303,121.865998 94.1876715,121.865998" id="Fill-129" fill="#4670B2"></path>
                            <path d="M89.1174507,120.473998 C89.0632026,120.473998 89.0084066,120.459235 88.9590902,120.42807 C87.9513914,119.792186 87.0510928,118.947439 86.2839485,117.916794 C86.1853157,117.785024 86.2132617,117.599125 86.3447721,117.501255 C86.4762826,117.403931 86.663137,117.429629 86.7612219,117.562492 C87.4850773,118.534088 88.3316758,119.329079 89.2769071,119.926143 C89.416089,120.013624 89.457186,120.197336 89.3695124,120.335667 C89.3125245,120.425336 89.2166315,120.473998 89.1174507,120.473998" id="Fill-131" fill="#4670B2"></path>
                            <path d="M85.5696276,116.530261 C85.4638713,116.530261 85.3603068,116.473398 85.3071547,116.37334 C84.4934338,114.85225 84.2139741,113.613288 84.2030149,113.561345 C84.1673975,113.401144 84.2687701,113.24313 84.4293225,113.207591 C84.5915187,113.172051 84.7493312,113.273749 84.7838527,113.433403 C84.7865925,113.445432 85.0594767,114.648854 85.8321006,116.093398 C85.9093629,116.23829 85.8551149,116.418175 85.7099054,116.495268 C85.6655207,116.518779 85.6173002,116.530261 85.5696276,116.530261" id="Fill-133" fill="#4670B2"></path>
                            <path d="M50.7286749,119.973383 C49.6343984,119.973383 48.442037,119.792405 47.1680296,119.432089 C47.010217,119.387254 46.9181597,119.222679 46.9630925,119.065212 C47.0074772,118.907744 47.1696734,118.815342 47.3307737,118.860723 C49.0152034,119.337499 50.5434643,119.486218 51.8662402,119.304693 C52.0256967,119.282276 52.1791255,119.394909 52.2015919,119.558391 C52.2240582,119.720779 52.1100825,119.870592 51.9478863,119.893009 C51.5566427,119.946591 51.1500563,119.973383 50.7286749,119.973383" id="Fill-135" fill="#4670B2"></path>
                            <path d="M53.472202,119.503004 C53.3521987,119.503004 53.2387709,119.430284 53.1938382,119.311637 C53.1357544,119.157997 53.2124688,118.986314 53.3669936,118.928357 C54.4782569,118.506804 55.4207484,117.787813 56.1670702,116.789973 C56.266251,116.658203 56.4520095,116.631959 56.5840679,116.729829 C56.7155783,116.827699 56.7424284,117.014145 56.6443435,117.145368 C55.8289787,118.235064 54.7971697,119.021854 53.5774103,119.483867 C53.5428888,119.496989 53.5072714,119.503004 53.472202,119.503004" id="Fill-137" fill="#4670B2"></path>
                            <path d="M57.3154303,115.716789 C57.2743333,115.716789 57.2321404,115.708041 57.1915913,115.689998 C57.0425462,115.622199 56.9767909,115.446142 57.044738,115.296876 C57.6968106,113.866548 57.8272252,112.589859 57.8283211,112.577284 C57.8442119,112.413802 57.9970928,112.294608 58.1527135,112.309918 C58.3165536,112.325774 58.4365569,112.470665 58.421214,112.6336 C58.4157344,112.68937 58.2825801,114.018001 57.5861227,115.542919 C57.5362583,115.652271 57.4283101,115.716789 57.3154303,115.716789" id="Fill-139" fill="#4670B2"></path>
                            <path d="M77.3330736,106.076124 C64.6313564,106.076124 54.1017534,103.018634 53.9685991,102.979267 C53.8113345,102.932792 53.7209211,102.76767 53.7680457,102.610203 C53.8146223,102.453282 53.9779144,102.36252 54.1379188,102.410088 C54.3044987,102.459297 70.9915304,107.302511 87.651164,104.731091 C87.8111684,104.707033 87.9651452,104.816386 87.9908993,104.978774 C88.0161055,105.141162 87.9048696,105.292615 87.7421254,105.317766 C84.2220291,105.861247 80.700837,106.076124 77.3330736,106.076124" id="Fill-145" fill="#4670B2"></path>
                            <path d="M49.260306,99.0039819 C46.8021565,90.7538961 38.8918032,84.2321238 34.2883897,76.7064971 C27.7254705,65.9784877 23.2886368,58.7229613 23.2886368,58.7229613 C23.2886368,58.7229613 21.7740749,59.5370893 17.602454,62.5333429 C24.6793598,77.1521078 26.8684608,89.4137834 36.7459911,105.247453 C36.7459911,105.247453 41.2732382,110.96986 45.6848657,107.922757 C50.0959453,104.876201 49.260306,99.0039819 49.260306,99.0039819" id="Fill-179" fill="#FFC6A0"></path>
                            <g id="编组" transform="translate(0.000000, 44.565444)">
                                <mask id="mask-4" fill="white">
                                    <use xlink:href="#path-3"></use>
                                </mask>
                                <g id="Clip-182"></g>
                                <path d="M2.20153965,2.82697618 C7.08934455,5.84564697 12.8297755,6.27157426 12.8297755,6.27157426 C12.8297755,6.27157426 10.2116217,2.61428591 10.4445048,0.524016317 C10.5721795,-0.626916851 11.4916567,0.233685908 12.7716917,2.3239555 C13.7843221,3.97681582 15.8819138,5.35574858 18.1827986,6.50394794 C23.3029386,9.05787137 23.8262406,14.9218895 23.8262406,14.9218895 C24.0591237,18.5600412 20.4979304,20.3364697 17.8332,18.6950913 C14.6917442,16.760102 5.52053452,14.0563659 2.24044483,11.8058952 C-0.241814832,10.1032795 -0.571138906,9.2853242 1.23165012,9.87090587 C2.03057608,10.1300709 2.69032014,10.6352786 3.48212262,10.9157673 C4.47831424,11.2689753 5.56875502,11.4149606 6.58467321,11.457608 C3.81144669,9.98681933 1.65905907,8.20656356 0.495191624,6.19393411 C-0.0472889644,5.25623797 -0.241814832,4.18185142 0.417381277,4.25894481 C0.417381277,4.25894481 -0.241814832,2.71106272 1.27110325,3.09762317 C1.58124872,2.74933603 2.20153965,2.82697618 2.20153965,2.82697618" id="Fill-181" fill="#FFC6A0" mask="url(#mask-4)"></path>
                            </g>
                            <path d="M19.0026018,57.409804 C15.9252574,57.409804 14.5422059,53.2828474 14.3904209,52.7973231 L12.7328413,50.9153697 C12.6572228,50.8295281 12.6659902,50.6993989 12.751472,50.6239458 C12.8364058,50.5490394 12.9679163,50.5572408 13.0429868,50.6430824 L14.7301562,52.5583883 C14.7504308,52.5813523 14.7657736,52.6086904 14.7734451,52.6382155 C14.788788,52.6890643 16.275404,57.7220048 19.7648145,56.9062365 C19.8771463,56.8794452 19.9867383,56.9488839 20.0130404,57.0598765 C20.0393425,57.1708692 19.9702995,57.2818618 19.8585156,57.3075596 C19.5604253,57.377545 19.2743901,57.409804 19.0026018,57.409804" id="Fill-183" fill="#E59788"></path>
                            <path d="M8.17507287,54.4103245 C8.1580861,54.4103245 8.14055138,54.4081375 8.12301665,54.4037634 C7.14161995,54.1484257 3.76070558,53.0909888 1.43954621,50.2117422 C0.620345731,49.1953124 0.326091109,49.0099602 0.313488025,49.0028523 C0.218142952,48.9443488 0.18471738,48.8196872 0.240609319,48.7223636 C0.296501259,48.6255868 0.4170525,48.5895005 0.515685335,48.6430832 C0.572125234,48.6737018 0.896517667,48.8798309 1.76174681,49.9531239 C4.0039999,52.7345002 7.27696612,53.7574912 8.22712909,54.0046274 C8.33781704,54.0336058 8.40357227,54.1456919 8.37507834,54.2561377 C8.35042013,54.3490872 8.26713018,54.4103245 8.17507287,54.4103245" id="Fill-185" fill="#E59788"></path>
                            <path d="M9.22227959,52.5525926 C9.2069367,52.5525926 9.19104586,52.5509523 9.17515501,52.547125 C9.03049352,52.5132258 5.61560562,51.7056589 3.79528187,50.1823811 C2.71415641,49.2774906 1.47083474,48.0953921 1.4576837,48.0833633 C1.37548967,48.0046296 1.37220191,47.8745004 1.45110817,47.7919394 C1.52946648,47.7093784 1.66097693,47.7066446 1.74371892,47.7848315 C1.75577404,47.7968602 2.98978039,48.9702106 4.0604946,49.8663529 C5.80684372,51.3272999 9.23433471,52.1376006 9.26940416,52.145802 C9.38009212,52.1714998 9.44968307,52.2824924 9.42338098,52.3929382 C9.40091461,52.4886215 9.31652874,52.5525926 9.22227959,52.5525926" id="Fill-187" fill="#E59788"></path>
                            <path d="M7.53505537,56.0359561 C7.50765736,56.0359561 7.48025935,56.0304885 7.45450522,56.0195533 C7.3487489,55.9747188 7.29998044,55.8538845 7.34491318,55.7489063 C7.4079286,55.6018274 8.90221604,52.1375459 10.678703,50.9554473 C10.7735001,50.8931165 10.9022707,50.9182675 10.9652862,51.0128573 C11.0288495,51.107447 11.0030954,51.2353893 10.9077503,51.2988136 C9.23427992,52.4120202 7.73999248,55.875755 7.72519755,55.9107477 C7.69177198,55.9889346 7.61505755,56.0359561 7.53505537,56.0359561" id="Fill-189" fill="#E59788"></path>
                            <path d="M17.2517046,58.1259523 C17.1985525,58.1259523 17.1459483,58.1057221 17.1053993,58.0652618 C15.8922154,56.8547316 11.8038844,56.4452072 11.7622395,56.4413798 C11.6482637,56.4304446 11.5655217,56.3292937 11.5770289,56.216114 C11.5874402,56.1029344 11.6877169,56.0187331 11.8022405,56.0307619 C11.9764919,56.0477115 16.0801658,56.459423 17.39801,57.7738378 C17.4785602,57.8542118 17.4785602,57.9848878 17.39801,58.0652618 C17.357461,58.1057221 17.3048568,58.1259523 17.2517046,58.1259523" id="Fill-191" fill="#E59788"></path>
                            <path d="M91.3066064,100.464874 C93.7647558,92.2147884 101.675109,85.6930161 106.278523,78.1673894 C112.841442,67.4393801 117.278276,60.1838536 117.278276,60.1838536 C117.278276,60.1838536 118.792838,60.9979816 122.964458,63.9942352 C115.887553,78.6130001 113.698452,90.8746758 103.820921,106.708345 C103.820921,106.708345 99.2936742,112.430752 94.8820467,109.383649 C90.4709671,106.337094 91.3066064,100.464874 91.3066064,100.464874" id="Fill-193" fill="#FFC6A0"></path>
                            <path d="M139.519596,47.7882214 C134.469047,50.9080431 128.53683,51.3476394 128.53683,51.3476394 C128.53683,51.3476394 131.242657,47.5684232 131.002103,45.4087149 C130.869497,44.2189617 129.919334,45.1085428 128.597106,47.2682511 C127.55105,48.9763343 125.382771,50.4017418 123.005172,51.5876678 C117.714616,54.2274328 117.17378,60.2866448 117.17378,60.2866448 C116.932677,64.0461776 120.612778,65.8816563 123.366278,64.1861485 C126.612942,62.1860946 136.089913,59.3921428 139.479595,57.0667657 C142.044597,55.3072869 142.38488,54.4619935 140.521815,55.0672586 C139.696587,55.3351718 139.014925,55.8573291 138.19682,56.1471127 C137.166655,56.5123495 136.040049,56.6621622 134.990157,56.7069966 C137.855989,55.1869994 140.080707,53.3471466 141.28348,51.2678122 C141.843495,50.2984039 142.044597,49.1879311 141.363482,49.268305 C141.363482,49.268305 142.044597,47.6684806 140.481814,48.0681633 C140.16071,47.7083942 139.519596,47.7882214 139.519596,47.7882214" id="Fill-195" fill="#FFC6A0"></path>
                            <path d="M122.158299,58.1398401 C121.876648,58.1398401 121.582393,58.1064876 121.273344,58.0343151 C121.158272,58.0075238 121.087037,57.8927038 121.113887,57.7784306 C121.141285,57.6636107 121.253069,57.5919849 121.370881,57.619323 C124.966595,58.4624294 126.512939,53.2616331 126.528282,53.2085972 C126.537049,53.1785253 126.552392,53.1506405 126.573215,53.1265829 L128.316276,51.1467592 C128.394634,51.0587306 128.530528,51.0499824 128.617654,51.1276225 C128.706424,51.2052627 128.715191,51.339766 128.637381,51.4283414 L126.924457,53.3737192 C126.767193,53.8750996 125.337564,58.1392933 122.158299,58.1398401" id="Fill-197" fill="#E59788"></path>
                            <path d="M133.347044,55.0404126 C133.252247,55.0404126 133.165669,54.9769882 133.140463,54.8807582 C133.110325,54.7670318 133.17882,54.6505716 133.292796,54.6210464 C134.27474,54.3657088 137.657299,53.3088186 139.974622,50.4344929 C140.868893,49.3256603 141.203697,49.1124233 141.261781,49.0807111 C141.364797,49.0254882 141.494664,49.062668 141.551652,49.1665527 C141.606448,49.2682504 141.570282,49.3956458 141.470006,49.4530558 C141.449731,49.4650845 141.142873,49.6651993 140.307234,50.7013125 C137.908264,53.6773359 134.41447,54.7697656 133.401292,55.0333047 C133.382661,55.0382255 133.364578,55.0404126 133.347044,55.0404126" id="Fill-199" fill="#E59788"></path>
                            <path d="M132.264494,53.1207326 C132.166957,53.1207326 132.079283,53.0540277 132.056269,52.9561574 C132.029419,52.8413374 132.101201,52.7270642 132.215725,52.7002729 C132.25189,52.6915247 135.796097,51.8533392 137.598886,50.344824 C138.705218,49.4186098 139.980869,48.2058926 139.993472,48.1938638 C140.078954,48.1129431 140.213752,48.1156769 140.295398,48.2009717 C140.377044,48.2862665 140.373756,48.4213166 140.288275,48.5022374 C140.275124,48.5142661 138.989609,49.7362783 137.872866,50.6712406 C135.992267,52.2453673 132.462307,53.0802722 132.313262,53.115265 C132.296823,53.1190923 132.280384,53.1207326 132.264494,53.1207326" id="Fill-201" fill="#E59788"></path>
                            <path d="M134.008432,56.7201736 C133.92569,56.7201736 133.846783,56.6715118 133.812262,56.5905911 C133.796371,56.5545048 132.252219,52.9754034 130.523405,51.825017 C130.424772,51.7594056 130.39847,51.627636 130.463677,51.5297657 C130.529432,51.4318954 130.662039,51.4045573 130.759576,51.4701687 C132.595242,52.6916341 134.139942,56.2718291 134.204601,56.423282 C134.251178,56.5315408 134.200766,56.6567492 134.09227,56.703224 C134.064872,56.7147059 134.036378,56.7201736 134.008432,56.7201736" id="Fill-203" fill="#E59788"></path>
                            <path d="M123.9675,58.8797179 C123.912704,58.8797179 123.858455,58.8589409 123.816811,58.817387 C123.732973,58.7342793 123.732973,58.5992292 123.816811,58.5161214 C125.177944,57.1579656 129.418608,56.7325851 129.598338,56.7150887 C129.736972,56.7025132 129.82081,56.789995 129.83177,56.9064552 C129.843825,57.0234622 129.757247,57.1273469 129.640531,57.1388289 C129.597243,57.143203 125.371922,57.5669433 124.118189,58.817387 C124.076544,58.8589409 124.022296,58.8797179 123.9675,58.8797179" id="Fill-205" fill="#E59788"></path>
                        </g>
                    </g>
                    <g id="编组" transform="translate(3.511469, 104.431517)">
                        <g transform="translate(16.281080, 9.824443)">
                            <mask id="mask-6" fill="white">
                                <use xlink:href="#path-5"></use>
                            </mask>
                            <g id="Clip-2"></g>
                            <path d="M4.94217794,2.71893427 C4.80310292,4.06070284 3.59166331,5.03704622 2.23633792,4.89936232 C0.880575186,4.76167842 -0.105632869,3.5623564 0.0338794903,2.22015486 C0.172954506,0.878386283 1.38439411,-0.0979570961 2.7397195,0.0401597722 C4.0950449,0.177843672 5.08125295,1.37716569 4.94217794,2.71893427" id="Fill-1" fill="#E4E6EF" mask="url(#mask-6)"></path>
                        </g>
                        <path d="M37.0715018,3.5998337 C36.9313026,4.94903251 35.7100712,5.93078254 34.343791,5.79233619 C32.9770699,5.65388985 31.9828905,4.44749104 32.1230896,3.09829223 C32.2637296,1.74909342 33.4849611,0.767343394 34.8512413,0.906225105 C36.2175215,1.04423608 37.2117009,2.25063489 37.0715018,3.5998337" id="Fill-3" fill="#E4E6EF"></path>
                        <path d="M4.96154549,2.70685628 C4.82147582,4.05619198 3.5998247,5.03752703 2.23323193,4.89922614 C0.867045154,4.76052437 -0.127246499,3.5547009 0.0132291694,2.2053652 C0.153298839,0.856029498 1.37494995,-0.125305557 2.74113673,0.0129953391 C4.1077295,0.151296235 5.10202116,1.35752057 4.96154549,2.70685628" id="Fill-5" fill="#E4E6EF"></path>
                        <g transform="translate(45.677475, 6.251918)">
                            <mask id="mask-8" fill="white">
                                <use xlink:href="#path-7"></use>
                            </mask>
                            <g id="Clip-8"></g>
                            <path d="M5.3827317,2.94616435 C5.23068706,4.39400466 3.90886548,5.44697944 2.42972603,5.29858226 C0.950586587,5.14975494 -0.125151193,3.85590358 0.0264540091,2.40806327 C0.178498646,0.960222953 1.50032023,-0.0927518221 2.97945968,0.0556453581 C4.45815969,0.204472675 5.5343369,1.49832403 5.3827317,2.94616435" id="Fill-7" fill="#E4E6EF" mask="url(#mask-8)"></path>
                        </g>
                        <polygon id="Fill-9" fill="#E4E6EF" points="18.8025552 12.5038365 18.741905 12.4661662 2.71351339 2.43666596 2.84108801 2.23282794 18.8092476 12.2250765 34.9827815 3.16872489 35.0359027 3.18965282 48.8432411 8.61124186 48.7554028 8.83433358 35.0007674 3.43367246"></polygon>
                    </g>
                    <g id="编组" transform="translate(54.615971, 12.610762)">
                        <polygon id="Fill-1" fill="#CED0DB" points="14.4224896 0.159100291 8.76077181 17.9783329 12.1837603 17.9783329 17.8460167 0.159100291"></polygon>
                        <g transform="translate(0.000000, 2.068304)">
                            <g>
                                <mask id="mask-10" fill="white">
                                    <use xlink:href="#path-9"></use>
                                </mask>
                                <g id="Clip-3"></g>
                                <path d="M6.35063231,0.180882567 L2.65688937,0.180882567 L0.328867925,0.180882567 C0.147136648,0.180882567 -0.000109476673,0.327865522 -0.000109476673,0.509271995 L-0.000109476673,2.83313263 L-0.000109476673,11.4712499 L-0.000109476673,13.7951105 C-0.000109476673,13.976517 0.147136648,14.1234999 0.328867925,14.1234999 L2.65688937,14.1234999 L6.35063231,14.1234999 C6.53236359,14.1234999 6.67960971,13.976517 6.67960971,13.7951105 L6.67960971,11.7996393 C6.67960971,11.6182328 6.53236359,11.4712499 6.35063231,11.4712499 L2.65688937,11.4712499 L2.65688937,2.83313263 L6.35063231,2.83313263 C6.53236359,2.83313263 6.67960971,2.68614967 6.67960971,2.5052896 L6.67960971,0.509271995 C6.67960971,0.327865522 6.53236359,0.180882567 6.35063231,0.180882567" id="Fill-2" fill="#E4E6EF" mask="url(#mask-10)"></path>
                            </g>
                            <g transform="translate(20.143708, 0.000000)">
                                <mask id="mask-12" fill="white">
                                    <use xlink:href="#path-11"></use>
                                </mask>
                                <g id="Clip-5"></g>
                                <path d="M6.36524745,0.180882567 L4.037226,0.180882567 L0.343483061,0.180882567 C0.161751784,0.180882567 0.0145056591,0.327865522 0.0145056591,0.509271995 L0.0145056591,2.5052896 C0.0145056591,2.68614967 0.161751784,2.83313263 0.343483061,2.83313263 L4.037226,2.83313263 L4.037226,11.4712499 L0.343483061,11.4712499 C0.161751784,11.4712499 0.0145056591,11.6182328 0.0145056591,11.7996393 L0.0145056591,13.7951105 C0.0145056591,13.976517 0.161751784,14.1234999 0.343483061,14.1234999 L4.037226,14.1234999 L6.36524745,14.1234999 C6.54697872,14.1234999 6.69422485,13.976517 6.69422485,13.7951105 L6.69422485,11.7996393 L6.69422485,2.5052896 L6.69422485,0.509271995 C6.69422485,0.327865522 6.54697872,0.180882567 6.36524745,0.180882567" id="Fill-4" fill="#E4E6EF" mask="url(#mask-12)"></path>
                            </g>
                        </g>
                    </g>
                </g>
            </g>
        </g>
    </g>
</svg>